<mxfile host="app.diagrams.net" agent="Mozilla/5.0 (Macintosh; Intel Mac OS X 10_15_7) AppleWebKit/537.36 (KHTML, like Gecko) Chrome/129.0.0.0 Safari/537.36 Edg/129.0.0.0" version="24.7.17">
  <diagram name="Page-1" id="9h7cDO5v24vleC3QU6I-">
    <mxGraphModel dx="976" dy="541" grid="1" gridSize="10" guides="1" tooltips="1" connect="1" arrows="1" fold="1" page="1" pageScale="1" pageWidth="827" pageHeight="1169" math="0" shadow="0">
      <root>
        <mxCell id="0" />
        <mxCell id="1" parent="0" />
        <mxCell id="4NxRTZ11jrj2CLpq35Q1-1" value="" style="rounded=1;whiteSpace=wrap;html=1;" vertex="1" parent="1">
          <mxGeometry x="54" y="460" width="130" height="350" as="geometry" />
        </mxCell>
        <mxCell id="4NxRTZ11jrj2CLpq35Q1-8" value="" style="group" vertex="1" connectable="0" parent="1">
          <mxGeometry x="400" y="408" width="330" height="160" as="geometry" />
        </mxCell>
        <mxCell id="4NxRTZ11jrj2CLpq35Q1-9" value="" style="rounded=1;whiteSpace=wrap;html=1;" vertex="1" parent="4NxRTZ11jrj2CLpq35Q1-8">
          <mxGeometry width="330" height="130" as="geometry" />
        </mxCell>
        <mxCell id="4NxRTZ11jrj2CLpq35Q1-10" value="Mployr" style="text;html=1;align=center;verticalAlign=middle;whiteSpace=wrap;rounded=0;" vertex="1" parent="4NxRTZ11jrj2CLpq35Q1-8">
          <mxGeometry x="66" y="130" width="210" height="30" as="geometry" />
        </mxCell>
        <mxCell id="4NxRTZ11jrj2CLpq35Q1-12" value="&lt;p style=&quot;margin: 0.0px 0.0px 0.0px 0.0px&quot;&gt;&lt;font style=&quot;font-variant-numeric: normal; font-variant-east-asian: normal; font-variant-alternates: normal; font-size-adjust: none; font-kerning: auto; font-optical-sizing: auto; font-feature-settings: normal; font-variation-settings: normal; font-variant-position: normal; font-stretch: normal; font-size: 10px; line-height: normal; font-family: &amp;quot;Helvetica Neue&amp;quot;; font-variant-ligatures: common-ligatures;&quot; color=&quot;#000000&quot; face=&quot;Helvetica Neue&quot;&gt;10.0.16.0/20&lt;/font&gt;&lt;/p&gt;" style="text;html=1;align=center;verticalAlign=middle;whiteSpace=wrap;rounded=0;" vertex="1" parent="4NxRTZ11jrj2CLpq35Q1-8">
          <mxGeometry x="260" width="60" height="30" as="geometry" />
        </mxCell>
        <mxCell id="4NxRTZ11jrj2CLpq35Q1-41" value="Compute" style="verticalLabelPosition=bottom;html=1;verticalAlign=top;align=center;strokeColor=none;fillColor=#00BEF2;shape=mxgraph.azure.virtual_machine;" vertex="1" parent="4NxRTZ11jrj2CLpq35Q1-8">
          <mxGeometry x="40" y="26" width="80" height="70" as="geometry" />
        </mxCell>
        <mxCell id="4NxRTZ11jrj2CLpq35Q1-48" value="" style="image;aspect=fixed;html=1;points=[];align=center;fontSize=12;image=img/lib/azure2/storage/Storage_Accounts_Classic.svg;" vertex="1" parent="4NxRTZ11jrj2CLpq35Q1-8">
          <mxGeometry x="170" y="26" width="65" height="52" as="geometry" />
        </mxCell>
        <mxCell id="4NxRTZ11jrj2CLpq35Q1-5" value="Notification service" style="verticalLabelPosition=bottom;html=1;verticalAlign=top;align=center;strokeColor=none;fillColor=#00BEF2;shape=mxgraph.azure.notification_hub;pointerEvents=1;" vertex="1" parent="1">
          <mxGeometry x="82" y="586" width="70" height="70" as="geometry" />
        </mxCell>
        <mxCell id="4NxRTZ11jrj2CLpq35Q1-6" value="Github Action" style="shape=image;verticalLabelPosition=bottom;labelBackgroundColor=default;verticalAlign=top;aspect=fixed;imageAspect=0;image=data:image/png,iVBORw0KGgoAAAANSUhEUgAAAgoAAAG6CAYAAABp4269AAAMTmlDQ1BJQ0MgUHJvZmlsZQAASImVVwdYU8kWnltSIQQIREBK6E0QkRJASggt9I4gKiEJEEqMCUHFji6u4FoRESwrugqi2AERG+qqK4tidy2LBYWVdXFd7MqbEECXfeV7831z57//nPnnnHNn7r0DAL2TL5XmopoA5EnyZbHB/qzJySksUjegAiJgAE9A4AvkUk50dDiAZbj9e3l9EyDK9pqDUuuf/f+1aAlFcgEASDTE6UK5IA/iwwDgLQKpLB8AohTy5rPypUpcBrGODDoIcY0SZ6pwixKnq/CVQZv4WC7ETwAgq/P5skwANPogzyoQZEIdOowWOEmEYgnEfhD75OXNEEK8CGIbaAPnpCv12elf6WT+TTN9RJPPzxzBqlgGCzlALJfm8uf8n+n43yUvVzE8hzWs6lmykFhlzDBvT3JmhCmxOsRvJemRURBrA4DiYuGgvRIzsxQhCSp71EYg58KcASbEk+S5cbwhPlbIDwiD2BDiDEluZPiQTVGGOEhpA/OHVojzefEQ60FcI5IHxg3ZnJLNiB2e92aGjMsZ4rv5skEflPqfFTkJHJU+pp0l4g3pY46FWfFJEFMhDigQJ0ZCrAFxpDwnLmzIJrUwixs5bCNTxCpjsYBYJpIE+6v0sfIMWVDskP3uPPlw7NipLDEvcghfzc+KD1HlCnsi4A/6D2PB+kQSTsKwjkg+OXw4FqEoIFAVO04WSRLiVDyuJ833j1WNxe2kudFD9ri/KDdYyZtBHC8viBseW5APF6dKHy+W5kfHq/zEK7P5odEqf/D9IBxwQQBgAQWs6WAGyAbi9t7GXnin6gkCfCADmUAEHIaY4RFJgz0SeI0DheB3iERAPjLOf7BXBAog/2kUq+TEI5zq6gAyhvqUKjngKcR5IAzkwnvFoJJkxINE8AQy4n94xIdVAGPIhVXZ/+/5YfYLw4FM+BCjGJ6RRR+2JAYSA4ghxCCiLW6A++BeeDi8+sHqjLNxj+E4vtgTnhI6CI8INwidhDvTxUWyUV5GgE6oHzSUn/Sv84NbQU1X3B/3hupQGWfiBsABd4HzcHBfOLMrZLlDfiuzwhql/bcIvnpCQ3YUJwpKGUPxo9iMHqlhp+E6oqLM9df5UfmaPpJv7kjP6Pm5X2VfCNuw0ZbYt9gh7Dx2GruItWCNgIWdxJqwNuy4Eo+suCeDK254tthBf3Kgzug18+XJKjMpd6pz6nH6qOrLF83OV25G7gzpHJk4MyufxYFfDBGLJxE4jmM5Ozm7AKD8/qheb69iBr8rCLPtC7fkVwC8Tw4MDBz7woWeBOCAO3wlHP3C2bDhp0UNgAtHBQpZgYrDlRcCfHPQ4e7TB8bAHNjAeJyBG/ACfiAQhIIoEA+SwTTofRZc5zIwC8wDi0ExKAWrwXpQCbaC7aAG7AUHQSNoAafBj+ASuAJugLtw9XSB56APvAYfEAQhITSEgegjJoglYo84I2zEBwlEwpFYJBlJQzIRCaJA5iFLkFJkLVKJbENqkQPIUeQ0chHpQO4gD5Ee5E/kPYqh6qgOaoRaoeNRNspBw9B4dCqaic5EC9Gl6Eq0Aq1G96AN6Gn0EnoD7USfo/0YwNQwJmaKOWBsjItFYSlYBibDFmAlWDlWjdVjzfA5X8M6sV7sHU7EGTgLd4ArOARPwAX4THwBvgKvxGvwBvwsfg1/iPfhnwk0giHBnuBJ4BEmEzIJswjFhHLCTsIRwjm4l7oIr4lEIpNoTXSHezGZmE2cS1xB3EzcRzxF7CA+JvaTSCR9kj3JmxRF4pPyScWkjaQ9pJOkq6Qu0luyGtmE7EwOIqeQJeQicjl5N/kE+Sr5GfkDRZNiSfGkRFGElDmUVZQdlGbKZUoX5QNVi2pN9abGU7Opi6kV1HrqOeo96is1NTUzNQ+1GDWx2iK1CrX9ahfUHqq9U9dWt1PnqqeqK9RXqu9SP6V+R/0VjUazovnRUmj5tJW0WtoZ2gPaWw2GhqMGT0OosVCjSqNB46rGCzqFbknn0KfRC+nl9EP0y/ReTYqmlSZXk6+5QLNK86jmLc1+LYbWBK0orTytFVq7tS5qdWuTtK20A7WF2ku1t2uf0X7MwBjmDC5DwFjC2ME4x+jSIepY6/B0snVKdfbqtOv06Wrruugm6s7WrdI9rtvJxJhWTB4zl7mKeZB5k/l+jNEYzhjRmOVj6sdcHfNGb6yen55Ir0Rvn94Nvff6LP1A/Rz9NfqN+vcNcAM7gxiDWQZbDM4Z9I7VGes1VjC2ZOzBsb8YooZ2hrGGcw23G7YZ9hsZGwUbSY02Gp0x6jVmGvsZZxuXGZ8w7jFhmPiYiE3KTE6a/MbSZXFYuawK1llWn6mhaYipwnSbabvpBzNrswSzIrN9ZvfNqeZs8wzzMvNW8z4LE4sIi3kWdRa/WFIs2ZZZlhssz1u+sbK2SrJaZtVo1W2tZ82zLrSus75nQ7PxtZlpU21z3ZZoy7bNsd1se8UOtXO1y7Krsrtsj9q72YvtN9t3jCOM8xgnGVc97paDugPHocChzuGhI9Mx3LHIsdHxxXiL8Snj14w/P/6zk6tTrtMOp7sTtCeETiia0DzhT2c7Z4FzlfP1ibSJQRMXTmya+NLF3kXkssXltivDNcJ1mWur6yc3dzeZW71bj7uFe5r7JvdbbB12NHsF+4IHwcPfY6FHi8c7TzfPfM+Dnn94OXjleO326p5kPUk0acekx95m3nzvbd6dPiyfNJ/vfTp9TX35vtW+j/zM/YR+O/2ecWw52Zw9nBf+Tv4y/yP+b7ie3PncUwFYQHBASUB7oHZgQmBl4IMgs6DMoLqgvmDX4LnBp0IIIWEha0Ju8Yx4Al4try/UPXR+6Nkw9bC4sMqwR+F24bLw5gg0IjRiXcS9SMtISWRjFIjiRa2Luh9tHT0z+lgMMSY6pirmaeyE2Hmx5+MYcdPjdse9jvePXxV/N8EmQZHQmkhPTE2sTXyTFJC0Nqlz8vjJ8ydfSjZIFic3pZBSElN2pvRPCZyyfkpXqmtqcerNqdZTZ0+9OM1gWu6049Pp0/nTD6UR0pLSdqd95Efxq/n96bz0Tel9Aq5gg+C50E9YJuwReYvWip5leGeszejO9M5cl9mT5ZtVntUr5oorxS+zQ7K3Zr/JicrZlTOQm5S7L4+cl5Z3VKItyZGcnWE8Y/aMDqm9tFjaOdNz5vqZfbIw2U45Ip8qb8rXgT/6bQobxTeKhwU+BVUFb2clzjo0W2u2ZHbbHLs5y+c8Kwwq/GEuPlcwt3We6bzF8x7O58zftgBZkL6gdaH5wqULuxYFL6pZTF2cs/jnIqeitUV/LUla0rzUaOmipY+/Cf6mrlijWFZ8a5nXsq3f4t+Kv21fPnH5xuWfS4QlP5U6lZaXflwhWPHTdxO+q/huYGXGyvZVbqu2rCaulqy+ucZ3Tc1arbWFax+vi1jXUMYqKyn7a/309RfLXcq3bqBuUGzorAivaNposXH1xo+VWZU3qvyr9m0y3LR805vNws1Xt/htqd9qtLV06/vvxd/f3ha8raHaqrp8O3F7wfanOxJ3nP+B/UPtToOdpTs/7ZLs6qyJrTlb615bu9tw96o6tE5R17Mndc+VvQF7m+od6rftY+4r3Q/2K/b/diDtwM2DYQdbD7EP1R+2PLzpCONISQPSMKehrzGrsbMpuanjaOjR1mav5iPHHI/tajFtqTque3zVCeqJpScGThae7D8lPdV7OvP049bprXfPTD5z/WzM2fZzYecu/Bj045nznPMnL3hfaLnoefHoT+yfGi+5XWpoc2078rPrz0fa3dobLrtfbrricaW5Y1LHiau+V09fC7j243Xe9Us3Im903Ey4eftW6q3O28Lb3Xdy77z8peCXD3cX3SPcK7mveb/8geGD6l9tf93X6dZ5/GHAw7ZHcY/uPhY8fv5E/uRj19KntKflz0ye1XY7d7f0BPVc+W3Kb13Ppc8/9Bb/rvX7phc2Lw7/4fdHW9/kvq6XspcDf654pf9q118uf7X2R/c/eJ33+sObkrf6b2vesd+df5/0/tmHWR9JHys+2X5q/hz2+d5A3sCAlC/jD/4KYEB5tMkA4M9dANCSAWDAcyN1iup8OFgQ1Zl2EIH/hFVnyMHiBkA9/KeP6YV/N7cA2L8DACuoT08FIJoGQLwHQCdOHKnDZ7nBc6eyEOHZ4PvYT+l56eDfFNWZ9Cu/R7dAqeoCRrf/ApptgxaApzPhAAAAlmVYSWZNTQAqAAAACAAFARIAAwAAAAEAAQAAARoABQAAAAEAAABKARsABQAAAAEAAABSASgAAwAAAAEAAgAAh2kABAAAAAEAAABaAAAAAAAAAJAAAAABAAAAkAAAAAEAA5KGAAcAAAASAAAAhKACAAQAAAABAAACCqADAAQAAAABAAABugAAAABBU0NJSQAAAFNjcmVlbnNob3RwyGoRAAAACXBIWXMAABYlAAAWJQFJUiTwAAAC22lUWHRYTUw6Y29tLmFkb2JlLnhtcAAAAAAAPHg6eG1wbWV0YSB4bWxuczp4PSJhZG9iZTpuczptZXRhLyIgeDp4bXB0az0iWE1QIENvcmUgNi4wLjAiPgogICA8cmRmOlJERiB4bWxuczpyZGY9Imh0dHA6Ly93d3cudzMub3JnLzE5OTkvMDIvMjItcmRmLXN5bnRheC1ucyMiPgogICAgICA8cmRmOkRlc2NyaXB0aW9uIHJkZjphYm91dD0iIgogICAgICAgICAgICB4bWxuczpleGlmPSJodHRwOi8vbnMuYWRvYmUuY29tL2V4aWYvMS4wLyIKICAgICAgICAgICAgeG1sbnM6dGlmZj0iaHR0cDovL25zLmFkb2JlLmNvbS90aWZmLzEuMC8iPgogICAgICAgICA8ZXhpZjpVc2VyQ29tbWVudD5TY3JlZW5zaG90PC9leGlmOlVzZXJDb21tZW50PgogICAgICAgICA8ZXhpZjpQaXhlbFhEaW1lbnNpb24+NTIyPC9leGlmOlBpeGVsWERpbWVuc2lvbj4KICAgICAgICAgPGV4aWY6UGl4ZWxZRGltZW5zaW9uPjQ0MjwvZXhpZjpQaXhlbFlEaW1lbnNpb24+CiAgICAgICAgIDx0aWZmOlJlc29sdXRpb25Vbml0PjI8L3RpZmY6UmVzb2x1dGlvblVuaXQ+CiAgICAgICAgIDx0aWZmOlhSZXNvbHV0aW9uPjE0NC8xPC90aWZmOlhSZXNvbHV0aW9uPgogICAgICAgICA8dGlmZjpZUmVzb2x1dGlvbj4xNDQvMTwvdGlmZjpZUmVzb2x1dGlvbj4KICAgICAgICAgPHRpZmY6T3JpZW50YXRpb24+MTwvdGlmZjpPcmllbnRhdGlvbj4KICAgICAgPC9yZGY6RGVzY3JpcHRpb24+CiAgIDwvcmRmOlJERj4KPC94OnhtcG1ldGE+ChqO/YAAAEAASURBVHgB7L13c1xZmuZ3kAkagDAE6B3oPYumHKu6fHVVV2/3TM9M74xaM6uZVShiY0IR0nfQHwpF6BtICpmQtmd3erdntqd7etqVN6xi0XtPkHAEQcI7mjR6fjeZJAjmvXkTQPr3RGcnmDfz3nOem5Xvc17zvDVJDWfDEDAEDAFDwBAwBAyBDAhEMrxmLxkChoAhYAgYAoaAIeAhYETBvgiGgCFgCBgChoAh4IuAEQVfaOyAIWAIGAKGgCFgCBhRsO+AIWAIGAKGgCFgCPgiYETBFxo7YAgYAoaAIWAIGAJGFOw7YAgYAoaAIWAIGAK+CBhR8IXGDhgChoAhYAgYAoaAEQX7DhgChoAhYAgYAoaALwJGFHyhsQOGgCFgCBgChoAhYETBvgOGgCFgCBgChoAh4IuAEQVfaOyAIWAIGAKGgCFgCBhRsO+AIWAIGAKGgCFgCPgiYETBFxo7YAgYAoaAIWAIGAJGFOw7YAgYAoaAIWAIGAK+CBhR8IXGDhgChoAhYAgYAoaAEQX7DhgChoAhYAgYAoaALwJGFHyhsQOGgCFgCBgChoAhYETBvgOGgCFgCBgChoAh4IuAEQVfaOyAIWAIGAKGgCFgCBhRsO+AIWAIGAKGgCFgCPgiYETBFxo7YAgYAoaAIWAIGAJGFOw7YAgYAoaAIWAIGAK+CBhR8IXGDhgChoAhYAgYAoaAEQX7DhgChoAhYAgYAoaALwJGFHyhsQOGgCFgCBgChoAhYETBvgOGgCFgCBgChoAh4IuAEQVfaOyAIWAIGAKGgCFgCBhRsO+AIWAIGAKGgCFgCPgiYETBFxo7YAgYAoaAIWAIGAJGFOw7YAgYAoaAIWAIGAK+CBhR8IXGDhgChoAhYAgYAoaAEQX7DhgChoAhYAgYAoaALwJGFHyhsQOGgCFgCBgChoAhYETBvgOGgCFgCBgChoAh4IuAEQVfaOyAIWAIGAKGgCFgCBhRsO+AIWAIGAKGgCFgCPgiYETBFxo7YAgYAoaAIWAIGAJGFOw7YAgYAoaAIWAIGAK+CBhR8IXGDhgChoAhYAgYAoaAEQX7DhgChoAhYAgYAoaALwJGFHyhsQOGgCFgCBgChoAhYETBvgOGgCFgCBgChoAh4IuAEQVfaOyAIWAIGAKGgCFgCBhRsO+AIWAIGAKGgCFgCPgiYETBFxo7YAgYAoaAIWAIGAJGFOw7YAgYAoaAIWAIGAK+CBhR8IXGDhgChoAhYAgYAoaAEQX7DhgChoAhYAgYAoaALwJGFHyhsQOGgCFgCBgChoAhYETBvgOGgCFgCBgChoAh4IuAEQVfaOyAIWAIGAKGgCFgCBhRsO+AIWAIGAKGgCFgCPgiYETBFxo7YAgYAoaAIWAIGAJGFOw7YAgYAoaAIWAIGAK+CBhR8IXGDhgChoAhYAgYAoaAEQX7DhgChoAhYAgYAoaALwJGFHyhsQOGgCFgCBgChoAhYETBvgOGgCFgCBgChoAh4IuAEQVfaOyAIWAIGAKGgCFgCBhRsO+AIWAIGAKGgCFgCPgiYETBFxo7YAgYAoaAIWAIGAJGFOw7YAgYAoaAIWAIGAK+CNT6HrEDhkCeEEgmn5y4pubJ3/aXIWAIGAKGQOkhYESh9O5JRc8oFnfuQcy5h4mkq5U/a8G8Gu+5ohdtizMEDAFDoIwRMKJQxjev1KYeTzg3dj/pbg8lXddwwt28k3TjD5ybeJB0k3qevO/cfZGEWDzp8CrUiCjURmrcwnnO1S3QY36NWzTfucX1zq1urXHrFkfcssYa17CwxultNgwBQ8AQMASKgIARhSKAXimXhBgM30u6PpGCriHnOu4mXLdIQv9w0g1NpAgC74nLi8CznAguoecpkQdXo39FRBiiPEQGIlHn5uuPehGH5vqEa22qcauanFu/7BFx0L8bRRzm6X02DAFDwBAwBPKPgBGF/GNcUVfA2N97KK+ByMCFWwl35XbS3RpIusGJpBuZlEdBxOHBQ7wGs1l20pG7UBtNuvn6hqZIQ41rqUu4VUtq3LaVeqyIuJXNNZ4XwrwNs8HaPmsIGAKGQDACNUmN4LfYUUMgZfiHJpPuprwGF3uTrr0v4Tr65U0YSboJEQQ8BvkeeB4W1Tm3QgRh/dIat2lZxG1Zwd8Rt2SRhSfyjb+d3xAwBKoTASMK1XnfQ68aD8LdsaS7JmJwqUceBJGEq3cSbmAkFUYIfaI5fuM8eRpalb+wQR6GrXgYVkfcLj0W19V43og5vpydzhAwBAyBqkXAiELV3vrsCycJsUteg+M3E+7wtbhHEkhILLWxQMmQG+VZ+O6uqNu7LuLWtJAgaYSh1O6TzccQMATKEwEjCuV53/I6axIOh5RrcFEehD+ci7vTIgpDY3m95KxPTk4DlRMvbY247+2Ous3LU94FS3qcNbR2AkPAEKhyBIwoVPkXYOryyVZ5qCTEu6MJ9+GFuPvwXML1KlGRqoVyGeQxrFH+wnd3RdxrW6JuTWvES4i06spyuYM2T0PAECg1BIwolNodKeJ87qla4fKtuPt/voy5yz1Jd1//LtdU1/qFzu1bH3H/an/UvajnBbVGFYr41bJLGwKGQBkjYOWRZXzz5mrqkIEBlTcea4+7XxyNu+t9Sa+8caYkISqNgzoZ6kYlFrZJOKm1UdUKC5Q3oG8bBpucApIRYxJfuhdLunuIMenvCeU/9A4l3G1VUoyMS5xJr8+0zJJciuPXE25Y6xoaj7p3dkRdvQSdbBgChoAhYAjkhoARhdzwqrh3QwZ6JJL0+WVCDXHXczfpHspo5zLID8DwL5EY0ga5/TerbLFNzyv07yaRhXkiBp6YksICaB7wN5/h2hJp9ESYqK7gb8gBxr1XZKGzP+Hape5IGeYd6TbkMi/OjUfkmqo0/lmxk7F7zv1gb9QTa8plbfZeQ8AQMASqHQELPVT5N+CGiMGnykf47FLcdcsg55KPgLFvkn7BVlUc7FwtXQNEkFBOFDlofCTJjOJiroM8iUmJOo3JKzAq0tA/rpLM3oQ72SH9BpVmjkm3gYTLsAPRprUiLq9tj7ofHYi6lnpVRIT9sL3PEDAEDIEqR8CIQhV/AS5JWfHji3H3zZWE61HSYljjW6vQwmrpF6BbQHUB4kdrCDHIAGOU53rERAoGRBZuysPQIWJzTaERKjJuDaZUIMNcjzkvXwxZiMizUOtW62+aUtkwBAwBQ8AQCEbAiEIwPhV5VF55ufMT7ten4u6LiwnPrR8mH4GKguZFzm1fGXGvbIm4PWsiblULiYKpUEIhwCLhsnsg4U53y8NwQyJQt+RxGA1Hcgh7NGj+HygE8cf7opKAjng9Jgoxb7uGIWAIGALlioARhXK9czOcNyQBpcVfn4i5j1T+yK48G0kgxECHx1XyGjzXFnGvS6tg79qoejHMcBJz8LEJ5TJcUTji8PW4OyWdh5vyNIQRg2ItDepO+Vev1rq3d0bd0gaTfp6D22GnMAQMgQpGwIhCBd/c6UuDEIxLbRERJaobwoQbMKyNMqz0VPjO1qh7VdoEJCnyerEHCZCEJM50SRjqbNxdkJdhVF0rsxEf5r1G3Sj/+jtR9/KmqJdwWQLLKTacdn1DwBAwBDIiYEQhIyyV9yKeBLo+HtPu+//4OJYSUsqSEOjtvlXm+ILCDB88F3X71pamHgHJj4Qj/l7k57CqN8IkO7K2nWtr3E9eqXUvbIi6OnlMbBgChoAhYAg8i0AeUs+evYi9UnwEKC2k4+O/l5jSbYUbwnR7RBL5DSkc/lDJf1tV0TCTCoZCrByZ5jZ1kPx3b6kUU62pDynvYlg6DEGeBY6d70y639fHPX0FekRYcmMh7pZdwxAwBMoNASMK5XbHZjBfdtzXRRL+7y9i7sbtlJhSttMskifhL79T695USSGhhlIlCel1kKjYorLMf/vaPD3H3B/OhEvSPN6eUIJmzDXX1bpNquCwEEQaUXs2BAwBQyCFgBGFKvgm9Em86FO55C90ZScJGNymBuf+9p1at3991C2RTkKpk4T0LWTulGj+6Pla1yxPwW9Oxl27iFHQoIrimMjCkoa4W6q21c0iGzYMAUPAEDAEniBgleRPsKjIv8bvJ91lVQeglYBUctCg/HFJk3N/81qte0lJflQElAtJSK8LsgC5eUOekPf2RN0GJWEGDUIQ/SPOK7WknXaYkEzQ+eyYIWAIGAKVhoB5FCrtjk5ZD1UByB8fuqYukMpLCBok97XIk/D2rqh7U30R2FljdHMdGF6um9QfUZ2gGNURTHuZyMLr26JuUuTo3oN44PrpJ3FTOH2rUsstCj+sUxmoDUPAEDAEDIEUAkYUKvibMCT5Y0oHz3YmAvskYMwXS4jowKaIe293SuI4F1hw3/dLm4FmToO65n1VVzAWzEu58te01Hi7fPpBFMoEsybUF1+T5sPIvaT75HzcjSrB0W9QKXFJHTMhC8ubaj0RKb/32uuGgCFgCFQTAkYUKvRus6u/qgRG1Av71VApaNSrumGn5Jjflzdhkxo6hR1cA/Gmy7elkCgNA6SV70gl8f6jplLIORO+2LFSD5VWcm76LFClUIiBR2Sjrvn61lRTqaPqJunXWAr56ttqjvXN1YSw4GGJjYW4R3YNQ8AQKH0EjCiU/j2a0QxHtYvGk3BeBjwo7k5ewjr1baAHwj6VCIYNN3BOuk5+fTXuvlKiJF0eJ9ShkdDD1HGjJunOdTm3rTspcaOkowyRvhANajsd9lpTz5fr35CSbZKcfntX0nVpvl0iM9Om+PiUdJuk6RSdNAlBFNID8ngS9ochYAgYAiWGQPjtY4lN3KbjjwCG8Aq7fPVBGJVLPWg0SXVxj4w3FQ7z6P8cYkAS7siT8MuTMfcPR2LuvKopxnWd6SSBU/EaBOKUPBt/fzjufnY45rn3b40kHnseQlxyVm9pXKgGVmuiXn+K+QHCSswVZccj8jz0DidCN8ma1eTsw4aAIWAIlDgCRhRK/AbNZHq418/KeNNtMWgQx9++KuJeVG7CCpUGhh1jqqT4zemY+92JuMIa4Vo+Y4RHRC6+vJBw/7uUIX96KOYu34pLLTKV/Bj22jN933KFQN5VJQRVEEGeDEgQTaaOiNjcj0G5bBgChoAhUN0IGFGowPtPUmG7PAoDKvsLGsuU7PfSZnWBJB4fkicgA4234pfH4o7GTLmaUt4/OOrcpxJE+l9/HXP/1xcPFcIIDo8ErSHsMa81tkIePzoQdfUSk/JbL4RmUh6Qzy6kSEzY89v7DAFDwBCoVASMKFTYnSXB8Gy3Gj4pgTEoNwFD+YpIwn6FHahOCDM8I68Qw1HttqkSwKjOZPC5B/J69Cln4MMzcfc//9ND95+OPHRdgwkXC3aCzORyjz9Tp3USYqG6Y0FACALcEGq6rnwGPB42DAFDwBCoZgQsmbHC7j5JjOeUOHhX7vOg0SpZ5l1rIm7l4vAJjBj4MZU/XlSCJFUCsx0YZEoWJzTn0XvKqehNqjtlxD2nCokVjXPfWwLxKKouaJN9UaEZyjgzkR1eQ3+BFtZrlei5QgQjHJWaLSL2eUPAEDAESg8BIwqld09mNaMbqj7oeFSB4HcivAk7V9W4tdI3WJjjN4Addl8WEuJ33UyvQ2cQPKJR1YhaRiMMdUVJmAc2JDXHiFsswx6UU5DpnEGvUQXBeVe1xN2IEhepdMg0IAsnpNT47s6kW1aGCpWZ1mSvGQKGgCEwEwRyNBMzuYR9plAIYNzIHxhQ0iDG128Qr6fSYVlzbsqJnJ/zZpOCRj+hSQJOGGISK/lctsF7Ju47d01ehbujCdcppcQbbUmvZJNmTbSB9ssryHbuqcc5x1J5K3bLm9KlZM+0ONTU96T/7hkQcVEIZ/3SpNdhMv26PRsChoAhUE0IWI5CBd1tKRW7dhnY8QfBlpkkRnQCmlU2mOvgzPEAEsL5WlVBgQz0K9sibvlil5PAEiGNQXksKKf8l1Nx94sTMffZpbiXv0AXzNkOVgyRIVehVZLVQd6K+wo/dIhMjCq50YYhYAgYAtWKgHkUKuTOsyMfVqwf1z0Gzm+wo961pkYyxflTSKTd87s7pcsgGvqlBJlOy4V/sx+NguAEy6lzhhT0akffrwqOywpFIMX8wkbnNiytcYt1frwiMx2Qhc0qk1wlwtQtYkU+gt/oFJ6jk0kPLz5nwxAwBAyBakPAiEKF3HF2+gPaidPfIVvYgWTBRpUIzmT46xo+fTZyAbasiLj1klDe1xZ3H0s/AaXIO6p0IM8hTDiCMxK66L6bdD/vj6dyBiQzvb9NOQYy8vXzZ97dslHKkG0iHRdvpRIXn579k391iUgMqsIDT0e5ddJ8sgr7yxAwBAyBmSNgRGHm2JXUJymL7JIeAcqCfmWReBMWqK8D3oT5tYXZH0MY9rdF3VaRBkSMPj4b92SlxzTPXEohWd8VNW3quBNzu9bWuO+qhTTnpZdErTwXueYvYPTXqKIB1cY7AWoQd8fkqRH5ehhPdcMsqZtukzEEDAFDoAAIGFEoAMiFuAQ73qtKZHwQoCYINViknfTKpogXpy/EvLgG16W3wxtbo2oQFXHfKhzx+3Nxd1UhhSDvR6b5UaVw6oYEpe7G3d71Cfe+ul0eUGJmnbwLuQzevbY54poWCLgAojCsxNBBPWh0tTBAeyGXa9t7DQFDwBAoJwSMKJTT3QqYqycSpLJIhIz8Brvo9dpFo0wYlMTn9/nZvs7Of7kSHd+Vcd+qjpKHryfcp5cSrkehBYhO2IF3ATnoI5eTrlNrfnlzxP3RvqjCEeEVJrnWWik10usCb4RfKIR5oXRJSKdZuRE2DAFDwBCoNgSMKFTAHcfIPZBrfFjufIyo34AokMS3YBaJgH7nDvs6c8C7sGWFqg5UprhdLZ2/uhJ3tIAelOS0X9hk+vlZJ0mInSIZ4/fVSlvCTX/5co1bp7yDkL2tvHksEXGpm58qzZx+jfS/R9Tbwk9vIf0eezYEDAFDoFIRMKJQAXcWo0nfhfuqFPDbGbPMqAgCLZ7Z2RdzsIOnRJFGVM11SkxEJXKVCMNlOl4mJLwUTHimzp3QxV1pHRwX0VgwL+b+6tVat2xRuCRHSAuCTovkKZgQGfAbD4QtSZU2DAFDwBCoRgSMKFTAXYcc3Jd2QkzGzI8oYJzn6W43KXkvkmvmX54wYhr0X9i4rEYiSMqdUM7AmY6EO34z7m6oz8K4BJjCDIjSkFQdv7mScNtXxt1b6hKJ1yLMWKTkzmy5B1RpoFFhwxAwBAyBakTAiEIF3HXC+3gUYgo/+O2LMZsQhfo5Ujica9ioPnh+fY3n8WgTcTgu7QV6SnRLS+GBj8zy1DmQS4BQ0yF5JXavjnpKjngMso06EQW8G0GDjpkPg2I6QR+2Y4aAIWAIlDkCWX4iy3x1VTL9pIzkhIyZV0HgwxTS7v56GhyF22wXHD3mtVJhiKWLom7zcpEFPY5cS7hr8i6gEQEZCBp4U67qvXf03pWSpw5DFBaqWmJBlv8KqHjAowC0JQpdECx2zBAwBAyBWSGQ5SdyVue2DxcIgYQsJB6FhwgZ+VwTI1yrLL8FStwrVaKQnjqqi21LJP+scATllJ9fTiU7ojpJnwm/zT1EYVQhCHQP8K44kaJsg7DD/CzJnahEQsIgZDUhvBTZrmnHDQFDwBAoJwSMKJTT3fKZK+SArHzPmPkxBb0HA7ygTFomY+LRRtihLpeQhuc3xN1/+ibmLqiF9mRA7gIY3FO+BjwhzKACZIHEp2pqMrec5hwIQ3FeCIrxhDCo2nsMAUOgkhCw370KuJvYxLh8Cdlso7e/zr7JLilE8H5QvkgHyW3SXuDvII+Ih4X+z8/rMH1xlFJyviBYOGfSyxLNhvD0s9u/DQFDwBAofwTMo1D+99Db5ZJ7gMcAo+fZtAzrwoVOdUQy0Cxm+GCRXsLYU3HQM5hw/+FwzJ1oTzikn/3WxzQjor4LRSbCloBOkn8gNcsgCsC5auV1iBRDpapI2NtlDQFDwBBII2BEIY1EGT9T7linWDtVDeyMMxk9jCv9CugsGWRoSwWGMXXCvNibcF+o5PGCmkmRn0AeRtDcWXu9qhiQqQ6TyMhaISIkKwadd76IAj0rjCeUyrfD5mEIGAKFRMCIQiHRztO18CIsUjwfouDHFCAPXvye3XMmJpGnueV6WnItrvYl3LfX4+6USiQ7VR4ZVoAJHNZLmXGVKh7CNr2i9BGhqqBBVQREwYYhYAgYAtWIgBGFCrjr7HTxKHihB5/1QA5QF5xg9+zznmK+TMJgx92EOynBpdPyIFzpVZmjFBfDSjpDEuhh8erWiCfeFNqjoMTIoP4YYLIAEmbuhGJ+PezahoAhUEQEjCgUEfy5ujRGcqHc7fMeZe9nOi9EIabd+tik9AhKiClAEPpV0oh08zG1oUaZkTADxjsXzwdljvvaIu7ljVHPuyJIQo1xhTOy9XEIU0IZ6mL2JkPAEDAEyhABIwpleNOmT5nNbr0S+NADgDT4jYcyyreG2KXDFALe6HeCOXwdgjCiPASaOp3qTOkk3FAnyAnt8HMhCCQvIsO8eUXEfU8dJNe0RDzPSpipAsOIiNO45hE0SI7Mpt4Y9Hk7ZggYAoZAOSNgRKGc796juUMO5qvOjwZHEekB+A3c+NdlmD1Xu4xrMUaqkiHpekVYzsuLcEhiSme6pI1wLzeCwJoXyIuwREqO26S18NrWqHthfSSVpxFyYXSfvDuqcEyALgOnoj9Gtn4QIS9pbzMEDAFDoOwQMKJQdrcs84SJyW9Sj4SLXf6udCSQb4goYCCT9cHeh8xXmd2rlGcOaQd/+TatpRPuqOSZ+5WHkOtgrY2a/8ZlEXdwS8S9vi3qJTDmep7eoYSn5BgkDU1p5LKGGteoDpM2DAFDwBCoRgSMKFTIXccFv2mFsv2RLZYxzjTYzQ+OJV2/Hsskj1wodzqhBHoldPYn3IcX4u7ziwnXpzyEXEIM6fVQ2bG8pca9uT3i3tkRdRuWRkKXQqbPkX7uFEkZCWgvzfuaGuS1EFZ0ubRhCBgChkA1ImBEoULuOnkKbYsj2vnG3dCYlBrlPXhmYLDlTejRTprWzmFLCJ85T44v3BlLuI/Oxd1nIgidykPINVExfblFqmp4c7dyEXZH5T2JeMY7bHVD+hzpZ/AhJ2J4Mv1K5mdIQpNCOlYemRkfe9UQMAQqHwEjChVyj9nvtshF3rKoxt2S9kAmooCfgRLJcz0Jt7ct6hplePMyNBnmM6DmTF9fjbtPRRJu9itxUNUNhB9yGeQiIKK0T/kH31eyIlLOrTLceEO4xkwH+gmdAwo9aI5BY02rMK1LKT4Gvc+OGQKGgCFQqQgYUaiQO4tBbVYcfamS+zCifiV/uPvPdSXkdUi6Fdotz3RHHgQb1QxfKEmxT56Ni90zK3dkPXUiCBvVapochAMqfVzTGvGSCudC0qD9juYlQoUyY9BYt7jGNQjX2ZCSoPPbMUPAEDAESh0BIwqlfodymB/x+7ZW505JU2HUJ0+B090eTKkfrlKsv0W781xGjSx4NItKYf9o0n1yIeGG5UEYVzWDV42Zw0UoR1wrhcW9IgdoI9BqulWekrkgCEwDKeujUn28KyITlMjIOiEnDUWqEMkBMnurIWAIGAJ5Q8CIQt6gLfyJMflbMar1qiYY8clT0HvwNpySV2HnqohXUhmWKrDLn6ekSQz5cMDy7ikPors/92RFlCWXSX55+5oa97xCDbtXR9wq5V0goTxXA9IyoMZS57V+xKeCxiqFHVbKQ7PQEhmDYLJjhoAhUOEIzOFPcIUjVSbL26gqgDVKVOxSVcGYT6Ie4YdLylPolpZB21LpEYT8FkAo0BNYrpDFbbntg0YuFQ14CkhU3CKSgxeBMAMhB5o7hSUxQXOZeozcDcozuweU2BkQdoAU7RdZQachH+GZqXOyvw0BQ8AQKGUEQpqIUl6CzW0qAogu7ZTBvdIDUfA35n1DIgsSPNqs5MC1CkFgGLMOvYd4/XZ5Is51xHMOKUw/P9ckn4IQyA55Ed7YHvXO3SyBo7kKM0y9Jt4EdBwOKcFyREmMfiER5oWY00sb5XFRImMYaKZex/42BAwBQ6CSEDCiUEl3U2tBIOi5tRFPzAj3f6bqB5YcV/XB0faE27As4ZY2RF2dwgnZBgZzsYjC8xsi7uPzKsOUqqGfsQ06F+ep1TevWaJJbcpF+O6eqHt1M1UY+SEI6blMPkh6iZxHriYc4RG/gQdhjea1VbLQpp/gh5K9bggYAtWCgBGFCrzT65bUuM0ra9zlvho3MOLvVWi/nXSHr8XdOu3odyofIIxXAUJBcuHbOyPu96cSbjzX3gzs1nWONs3x7V0R98FztV61Rr5vA70lkI3+p+NxNxxAcCAxhFfe2iFNCoVDwmCS77nb+Q0BQ8AQKCYCRhSKiX6erk3fhx1rFB5Qwt6Akhr9BnkEZzqTCj0klN1fE9pgs/P/i5fnqevjQ3dMu/OwZAGju2qJ88od390ZdeuWRLzQg9/85vL1QYUavm2Pe7kZQV4QFC6bpUfxnU1RzQ3aYMMQMAQMgepGwIhCBd5/DDJu8016XOiJu/sBbvZh6SmcVKngBiVAvqUcgTCJexjTJSpX/JvXakUy4u7LywnXozAHYk6ZBvNpVVLgS5vVvGlL1KvMIIRRKLVDtBKuKIHxo/OJwARG5r5IOQn7NtS41SqLDINFpvXaa4aAIWAIVBICRhQq6W5OWQv6CGTtt/eJCNxI+PZVIIfhpsSHPr+o0kRVM5DfEGZgRNeqpfP399ZILTEhz0TCXVQlxW2FOqgmIOBBomKrduc7FNbYLQ/HdvWiWKHyR8oN85GsmGnehByu9CbcH87GPTITVI3BfPFyvKceEl7L7kwntNcMAUPAEKgyBIwoVOgNJ6lxm3IJDmxIqmNkwg0qLu83CB1ckJH/w/mYJKDxEoQjC1wDnYGmhRG3QaGLF1Ql0C+iMCEPBkShXrH+FpGPNVI3XCrCQLljIXfphBiuyZPwsRpRnZbXJFs5JKWQL22KeB4Py03w+7bY64aAIVBtCBhRqOA7Tk+E57STv3Qr4r5RW2cqHTINdtkQiWPXk655Qdz9xUG1VUbDIESIHs9Ag967SFUCq6UK+SCWavrEdQgtoNEwTzkTYc6VaW6zeQ3vBr0mvlEeBY2yggY6DttW16j6IuLq54dYeNDJ7JghYAgYAhWEQLitYwUtuJqWwu59nQz4QeUFoHgYNAhB3FFVwMeSXv5EO/B7PvkGfueACOCuhzQgt8yDpEcSAotBEoZJXnxEEvq0rqBBzsVaeUReEUlok2CVDUPAEDAEDIEnCNiv4hMsKvIvkgaRQiYsgIhQ0EiThZ8fibsjN+KOSoGgCoGgcxXzGF0rqXD4SFoP11UCmm20NDi3V/kce9elchOyvd+OGwKGgCFQTQgYUajwu81uflWzc+9IF2Cjkgmz5QhAFnruJt3/+WlMGgs0TvIXbSo16CA1/WpEdehK3EF2LkmdkvUEDTQTdq+LSIUx6klTB73XjhkChoAhUI0IGFGogru+QFUGlEv+6YtR1yrSkI0sAEn3naT7/w7F3KcKQ9wezm5wiw0j1Q39IjW/Ohlz/0Hzbu9NuphPTkZ6roQctsnb8rY0HfZIQrpQlRjp69uzIWAIGALlgEBNUqMcJmpznB0C3OQJVTf85mzM/ezrmJe8GObOL1Fuw3d3R9z7u6JuveL3YUjG7Gaa+6fxGtwaTri/OxxzX0gr4V5ItciVykv4796sda9tjViHyNxht08YAoZAlSBgRKFKbjTLxDU/JiP68yMP3W8lv0wpY7bBrrtJPRl2S1/h3d1Rr1HSohKpCmD2I2rydFoKlL87HXOn2pNuEg2H7MvyhJX+GwlG4U1YptLNYiRcZsPejhsChoAhUAoIWHlkKdyFAs0B13rjAud+uL9WiYoxd+gSZYPBVjWh3frIuHMn1UCqT8TiSq/6M+xBa0Gu+iIGrh4orNAhfYgvVfZ56HLc3VJbbfQbsg1qP+g18YMDUXdQVQ4oTBpJyIaaHTcEDIFqRsCIQpXdfYzicu2gf7Qv6mkefHs16RGBIBjwRCDKdEMVBMMTCXdr6KF7bVvU6yLZpBJIySQUbOAtIGHxpNpcfy19hIvdSXcnZA4Fa6ep1ZvyjLwnT8KqxaUZSikYmHYhQ8AQMARCIGChhxAgVeJb8BSgxvihkhUPy+CiNRDGZY+xpVJgvXpDbFsVcVvUpXLrsohbLQ8Dyov52J0zr/sScrqhBMurkpum5PHyrYTrVH+JsXvh7g7ej9ZGkQTJM78vorBRcy5Ur4lwM7R3GQKGgCFQmggYUSjN+1KQWWGAaZb0+UXtzlUK2SFDDIEIO+bJH7WGltYqu9wsw4u40yrJIDcjtiTSMFNDzLweKrQweh9vR9L1KjzSqZLNy+rZcE29KyA1NLrS20KNWglBrRSReX1bxH1vT1QtrsO11A51cnuTIWAIGAIVjoARhQq/wdmWR1ihS/H9LxXnR5Hxpnbr2bQHpp+TSohGJTyibrhhOb0dIm4F/R1EGJok+ITQE+8hR4IwBbt7PXmGHmIS1xyYB9edgBxMpsILt0UIbimsQNOqdpEYqjZyITLMk2uvFYH5zhaRhL21HpHJh9djOib2b0PAEDAEKgUBIwqVcidnsQ6M9B3t2r8SWfj1ybjrlks/JglnvZzziNLfQca5UX0maAYFcUAdkp4PC3SsVpLOeCIgDhj9h/SGkPfgga6HbHTfKN6DhOsVQRid0OuqYsiVuDBpiAjzQGTqbZV2vq2QgyUu5nw77QOGgCFgCDgjCvYl8BDA3T+kUsMjkj7+xdG45+q/J/c+JGK2w/MkiCTgSaDjZIS/ZcmJciREDiAC3kOEYa6uV6/qjs3Kn/hgb1Q6CVGvB8Vs12GfNwQMAUOgGhEwolCNdz1gzagZ9gwl3E+/jrsT6vcwrK6LM9nRB1wir4cIKyxW74bXJFn9gTwJW9Rqe34hyzLyujo7uSFgCBgChUfAiELhMS/5K0IMRu4l3eHrcfcbhSKuSg45l+TBYi2QpMVtkmL+k+dr3T71b2hRjgQhDsIQNgwBQ8AQMARmhoARhZnhVvGfIhQx/iBVbfC5miwdupxwPQO5VUUUCiTIwJImJ6lp5SJsj3oVDvVSjyS8YcMQMAQMAUNgdggYUZgdfhX/acoUaQqFfsE5SSWf7VQZpUoVyV8o5iDEQB7CGlVaIC+9Vx4EwgwrGrN3yCzmvO3ahoAhYAiUGwJGFMrtjhVhvngXJh9Kv0ASzh3yKrT3JSTlnHTXRBgG9dpMKyRmspT5qmRoFRnYqJLHrSIGm1TVsE4aCauaI16Vw0zOaZ8xBAwBQ8AQ8EfAiII/NnZkGgIQBto5Dyt/gRLGyxI/atcDvYOBCZUzqmpiUloHDymtnItqCYUUKKVcqDBC40IRhEV4ECISTJLA03IJPOm5RWWYMxV2mrY8+6chYAgYAoZABgSMKGQAxV4Kh8CEchh6RRJ65FW4pec70kC4q8fQaKrU8q5en5DEchBnIIRAEiJ5BuQU1IoY1M2rcQ0iBs3SX2hWBUOrelOskOLjCrW8xnuwVP+usxyEcDfJ3mUIGAKGwCwRMKIwSwDt4ykEqJSAOAzKswBZaFdYgq6Op2/6J0CSa0goYesqeQZUobBAss+L1LSpWSRhpcSaCCcgktQsT4LXR6JMwMabgh4EBInnmKQn8cTwoFITLYmoWJFXkaF/Q5AgTPqfDR8EwDSNJ3/HBSylvA+FKQNM8SyBK1h6mOp1/rZhCBgCs0NA+zcbhsDsEcDoNaqTJI+2VokdLU+q42TSnVOXx0e/5c9chB/xhjrn/uylVDkjn/WM5zPvLO0XMGBxjJYIwaTCLoRf7ok0oTh5T8qSY8JhTOEa2mDPlzFbpHUuUiLmInlFMG4oSNaJJNXreT7KlXoNQ1ftA/JJMu0DqXdOCMd7whH1TnJi6AOSwjVFIBqEZwPfP3qMEK7SY4HwrRfxXJDGVN9Rg7Xav1W2/pkgYERhJqjZZ+YEgfQOEcNIOSO7wnIa7GzxEtyX4eqTSNUNJXrSZIvGVYRihuRZmaR5FQudNiBJhFwWiSgtVXIm/Si2S+46lXsRkVdFeEAYqsy4ed4C4QVBGKAZ2CB4JtxVYUq30H6Fs8bVC8RPBAyiWS9Ml4CpwlSbhOkmNSxrU24LOCMlnvbkTLsl9k9DwBDwQcCIgg8w9vLsEchgH585aVxGtl8GFVdyOe33MFR31dny0NW4+/xCqmR0Urtc+ld4YQctB6PnhwHHSPpE+XJEBvGGmnEdOo8nIe6WKBdj/4aI1+1yl1p5N2iXXC1jVJ6XYzeF6aWEu9STdMPC2MM0jauAyES80vhwX8bUI2RcIbBOkYtvrxB+iLt6hbO2POr78dLGVN+P9Gfs2RAwBIIRMKIQjI8dzSMC/ODTDAqNhrfj2j6XwSAPg06WEIQTNxLurgz9qIzSTCs90mQioR10evTKM/HZGPkdCa8M9MUtEfeSiMPyxjJzuaQXlOUZ70H3QMJ9fT3hYdqtbqa0FydsA0nIdaQxhaWlPQ98z86IhHTcjbs/nIm7/esj6iiaajmOR8uGIWAI+CNgRMEfGzsySwTC7INx3Xcq8fG+jAW77zCfmeW0ZvRxDE2njNm3app1TAatQ27w4fGUIQra4c7kYt6uWNUikyIlA/K23NS1Too0vLMz6p5bE/ESOyshh4F7f3s44Y6JcH1zNeGtc0jeFTqGeg6mmYDn8xnuEcTjgcTDhnTfbimkca4r6V5+RMJInCXUY8MQMASeRcCIwrOY2CsFRIAdIy2lMYi0oy613R0Gq1/G60xX3H0rgnBR7nB0IzBm+R4QhvFHhIHwzB1d9/KGqHt1M1oSEbdQyY/lmtU/LC/MhV4RL2GK56RHXgQwnWvSNf0ecT/v6zp9HmGQiBhETET14Oak26kwD7ocNgwBQ+BpBIwoPI2H/avACGAY2Jm3S8BptZLP5pVQp0eMynUl0n1zTV6E9oQnLjWGLoReL+SATI0pgY8dcN9o3Ovu+dq2qNsj70KrDFs5kQWwuy3jfFSema+Uh3BZyZ/kaRQaU64HYehQHsPweNz1iqjc3Zp0L25WrxBpdlSCx6aQ31G7VmUjYEShsu9vya8Om8tO8qR6SOxti3oKjKUwaUjCpVsJ9+F5eRKuJVTVkKrbL+bcIAy3ZdCGFL/HfU7y5PPyMCxTNn857IPBtEc4HroSd59dSHUlRQuhmAPCMCSicnIy4UakLDquKpXXtkbdWvUQMbJQzDtj1y4lBIwolNLdqNK58GN9rlM7OrmDl8voFbtMknyEdiVY/uKESIKSFkdklGc7MDqUOrJWDL6eZjxo+X1ScX20GtgVv6KkPJQrS3mw7i4laX5yMSaSkHCdSgiFOMxm4Emh1JFBmIZrzHRAWK7eUjmrMivvqa/JOztrPalwIwszRdQ+V0kIGFGopLtZxmu5JSNyUTv41drJIdFcjIGdwbtxQyThp1/H3DF5EtBIyGVguBD8QURpoaSoybmA+KBASQ0/wkyeaJCeSeaDlJC0yHMuzbU4zwWFIsaUBcou+Pt7o14YIpe5Fuq9GHDCDb85E3Mfn1OliAhhLgNjTaJhWpgqjWlaWIlzcZ88DIUpRn9C3hb+TTVKWELC+yAw/3IvIUxj7scv1loYIpcbZe+tWASMKFTsrS2vhWFMKDncvCLiFivuXgyvAgbmhnIl/t9DMXfkSiK0gYHWRDFk+q+pWZLTtL7esrLGbVN3y5XykDSL+DRKORB54aQWOikyQjIfSZLdMprneyTW1Idok0oCZeAoFwxj3HjPTcXYfy3PB+qFf/XKPCk7ltZ9576ioPgPR2PuQ5Ul5uKd8UiXcG3Q9wFJ7w0ST9q3Vj0/VCaK5HejhJW8nBbdgIda/6jyOIaE6+1RtUPvTjUsu6VQTbp81fM6hICHxNoPT8c9bY//9vV5ntqoeRZCAGdvqVgESuxnpWJxtoWFQACBHfIC1i+TV0GGoJADo0st/6/PypOgTPwwhjo9P7wFu9fVeCEAyhcxajStwtB5q9D/PVlNjVetQIXH+iXO7dd1398lLQbV+N/sT7gvLifccV0f0oBhCzN47xcXhdvSuHtre7SkYuvj8pb8+nSKJIxKCCnswIOwRmqVBzdH3CubIm6tqjyQZ+b1ZzFFsjnVSGyVsN/hJFa1NSXzfFtlkEdVVUH55XW1RsfLEGaQtPrxmYRraYi5PztQ65GFMJ+z9xgClYiAEYVKvKtluqaH2ml/I6/CWrWPpgSwkBUQ3TIoHyvB7gvFzwkBZBsYKzpdbpTaH/oGz0vAZ6UUFQk3eAThCTPIeKp0pQJFHgtFKOhHsLguKoGliNaecF8q4e+EKi3uDKdyGjKe5NGLkJoehW5+9k3MSwbduy7q9ZQI+kwhjo2I/GCgf3ks7lVt4F3INsBupTwyr26NuIMbIyKNIgjIWUO6hFUQrN6xR++JiFBAxhoXRBXOirgDbUl3WNUrX8pT1K1yyGwkjLlOqGfHv8hbQyjsNeWB0M3UhiFQjQgYUajGu16ia8aOtMuVjuLhWu0MN8qzkDao+ZzyXYUAqGxANng0ROIic2pSR8sPlBfwsozZOhn3dG+GmZgSPsM5CRvQLbNehn6VSMeOFak5nelIeLH2IAyIxSNc9ffKrWjSznvD8khRyQJNsI5rJ//zIzHlJGQnO6yNHAQEkN4S8dqmENQSGWjCOTP9DhAugDA0iWhsVSiI/g9bVyXcZ5fi7ht5bu6LCARxFwhY/4hz/3Ak7jWZelHSz5zLhiFQbQgYUai2O17i66WJ0kkZRnbnLTIU+RbAYWd5TjkCX2kHj3Rytl0vO94V0nt4d1fEvb+n1qvSILlupsZs+u3gPHQ8XKddcIN2sIuFAW22vxaJuSds/AYGjwqIi4rNf3Qx7v5UcX0qIYoRW8fAolz5qUpLyaHItntnzYvUi+H1nRH3vd21XiMnOmvO1dw5P4QDPJrkvoGMLa6LuU/Op4gh8/UbVKiQ4PiRkjCXLoq4XcqRKEb+jN/87HVDoBAIGFEoBMp2jdAIYKgx2IcVgliqH/Y3VNOezwS9TuUFIKZ0TfFrkgiDBrkIdCN8e1dUfQIibo0IQ74GhGSJjP2Btog8BCny8ImMFS2s/cgMr0MmvpZ7fefquFz20aI0lBpQQuGZLikuShuDBNGgQcloa5Nzb+2IuvfkScinJwTisUjelu3yLtSpZKJxQdx9JLKQTSODCpNzWsvxlQm3TAQWb48NQ6CaEDCiUE13u0zWSsLZVXVT/Fw5Ay31zu2TKx7DOdeD6xyTe/ysjMC4DHDQIImO7oMf7It6gjz59nQwF3bCdI7cuSZl8KPqgvjJOcX7A9Qh2RyjMviVyMLqpojbpDkXcgcM2boqtcXjCh+huBg0IAkrFGJ6c0fEffBc1POizJUXIei63MuNyn3AYzN/Xtx9KEzJWwgiNVRUHLse1xzxRkS8ZNWga9gxQ6CSEMjDz28lwWNrKRYCEzKGZ7Ur/d3ZuCd+5LeLnun8ON9NlUKSMNgtN3nQ+TFo65QvgSfhTVUVFIIkTF3X/EeG7ScHa73204vkYQja07IDPtGedKeFH+WChRzke5xW6OiiwjlBAxJEzsArSlr8I1UVrFdVQyFIQnpOXB9xrz8+oHsqbwbhJO5z0IC8Hr0R94SjCotq0KzsmCGQfwSy/KeR/wnYFQyBTAjwQ0wPCEoVf3kq7m6NBO/4Mp0j6LWHsmNfKbxxPctOEoOCuxmC8B2FQYqVzIYRI2/jxy9GpdEQcQuUxxA06MJ4VCSoUyQoKAYfdI5cjxHPv6LeGBe65aHRDjxokJOwT62zv79HiZtFVJXEY/OB5vCKQkktDcG5JohxUcJ7ViQobJllEAZ2zBAoFwSMKJTLnarCebLLR4f/c7mGyZ7vGVL2v3bLc7GbG9ROm06QgxLXCRpk4r++PeLe3KbyxwIYNGbDuv1mtUdhiPf3UWmR0hTwmzvnuKpEwhvKwZiUJHEhBsJKV6SD0UlSaMAFIT3bV0fc20pe3KjqDMhYvgfzyTQnLs19JT/igIgLao9Bg66TNAobGA/2mASdw44ZAuWGgBGFcrtjVTZfDB6dE//leNz9vchChwxfUCw5DDwYjPPa9fZKqCjbzhA1wJc2pQR/8m3QmBdljvQaQGmRHfr0gZF9U56NfdJtaFT+RtAYVfOodmXsY9wKMbqUG0F5K56goNEql//LwvRFrSHfzUJZuSeVDaZ6ZKrA4L7ipXlBpa5IiAeNe8pl6bjj3DXhasMQqBYEsvDnaoHB1llMBPihhhD4De/HXgb0c2X9j03GFNOOut3akdarhC74Z/3ZM3IuDPG3anNMF8aggVFGaIf4eT4TApkF/R7ooIn2wF15OZpU8YDK4961ES+WPpWk1EnU6YCMLJUaw9rZZiIUrAtChdLl9bsRt2FpsFs9CIcwx7h/9OqgO6TffDgPUtd719e43VpbbZ5ZAmTLS6xUzsRNhWC49lYRv5elh7B6sUjKlG0S+RFoN+xfL1nt/rivbgX3qkfE65zyPyA6CGzZMAQqHQEjCpV+h0t4ffw4L1SsvUU7TEoiM+320tP3jKl2cyeuK0FPBv4dJRa+KiNOQlouSXAYtNsyZhhZNBuCRpuMyh4Z6nwmL7LmO8onoBcC0s0DWhvKkBixU8ox2Ctj9Cf7lZcgI5YekIat+vd2iQfduOsUPkkfefYZxcYb2v2ObUzmVYa4X6Ec8hP6s4RyyPc4oHbi6yVSlU8Ti3T0b9Wv4SuJK3UNUjaa9K53ur3GHb2WdD9+Oer2ax7znsDqVok87F4jwS+RtZtKXPQbY2pHjbgVHqkNSnK1YQhUOgJGFCr9Dpfw+mr0I93c6NyfK0HvVyfj3o8vrveggazuFbUDHrunRES5uQ8qCW3/OpW6KSktzMAw39DuEvc41QF+A2P8hvISVskVTTldPgY7/i5JR/9KyZpIRw+KMEzdjY9L3fCB/OaLRKboYYAGQHogT7xL674kLAbVBMlvIMLUJ+ONAUcKOV/jtvJH7ij0gM6D32BHv1/EZ5tKNuuU+5GPARGckMfol5JeRvAJgw4G6TGuPAoMfTSS9Bp2rWp54i1Cr2Ojcj/2S7ui5668Cj7fD76jVHd0aM0bVGZpwxCodATsW17pd7iE14fZwnWL8fhTkQWaQWVLJmM5ZJ93aJfMbvEfDse9HgffKJTAbjxbhj+GGHf0fe0w/faMkASqCp6XwUCaOR/mFZJAvsVv1VHxC+lFDKiqYypJYJ2sBfJwXu2ku2WEpw48DutFYtjRBglScc5+nbs3y05/6rln8neHPBeDavo0fQ1Tz1UnTHdK7Gi5kgfBeK4HJIHmWr8W8fpQZbU39R2ZShK4Hu/Bk3Reiaw31ASMrpPpwZSWykO1VfkKdepM6Te86yhvprPf7x32uiFQWQiYR6Gy7mfZrQaDUa+d8utK0OMHHEEhXOVBcsUskh9rvAJnJxMyuIrFK5Swc3XCy6KnTwQJc3QbnDfFG8Bn7skwEK/22y1ybkIZK1VXv1yu6Kmf59hcDJLrIAmfiCB8LrnlAfUTeGKunr4CHhB2wexgtz19yGu1TMkkfSfop5BpsGYIFAmNXCMP9tkjNDe0cx/RTt1vHcxtqea6Ujt4ckvmekCqWOdhiSL9i7xTt0Rc/JJeeS9JiYOqqJke7qLrJ5guE5kZEeZ+Y0JE08vH0FtyCX35nc9eNwRKGQEjCqV8d6pobrjFv6u8A8SFPpUBvSrDj+iS/091Chx2sJRQnpiQyE+3WhO3iizItU0XRjLYl0nXv1GJgQ3azTLusrtGk0Gf8xt4NXYq2Q6Xf7adL0YHY8z7whgMDFOXSMJn6t3wicINfYqfB60Rk0pSZSZPC62VUTZkh343oLJhWPkDd7Tm9Dz91j3T10nE7MkSduDc6+XWXyJSky2UwzzBlcHas9EK3guROiYxpF+pOqZLpIVzBA3uF5hOv78krbZqjnhqrsnr4DcgsneEOSQunyEdv+vb64ZAIREwolBItO1agQiQNPi26tlxUX8UlXCPhG3GA+SKp54MwsB7L+vHnUTFhvqkdoXOrZZngKqFVc2pBEEqCgb08HORYzgIOzyn5j9Bba4x+OgGDMqrcV8xcdz/VCrgxfALBWDQbg0n3KcXE2oy9KgJ1dRFZPibcy2TdwQ55umD8MMKHVsjQnS+09+oUV7aI49Dl3bZc129wVVvj6hSQ0QkyEtDfsLmR7LJ09eR/jfGfVJhpSF5JsZEbiAJyCw3KwxAiCoTYQBTPAnHRRJoCX1VORvZSAK40WyLJlGZKi8aRFq3aK6f6jvol8fieXoU5ugXQTGikL6D9lypCBhRqNQ7W6brQvmQMAThCJownVHJ4Bixb387+MxK+REf1g84vQauyXB8rR98zpXeydJK2u98EAWM0nq5yDEomQYGkUoFtP/PqSQQFzZKgzsU2z6gBMM2GRm6FU4dGK9+GbSP5S35WJ4EXOPZBvMlBIJmwkp5DjKNxfKYZBOCwgWPENLPpEPht6ZM5w772gihDREFcPcbCFeRkOmXxAg+EARKLE+q6gBFSeZKq/G9yhXZsYp+F0+fnc+Qk3DiZtz9VnkJdM7MRhLw+tCNEyVGKi8yhZaYI3hDWFGYzHSnuA7fA9ppczzz3Xl6vvYvQ6BcEZj2c1auy7B5VxICxIkPqtad3fJvz8bcx9JPGJFxz2YEMmHg/aArSz1bNUX6s/zg1+q/iiYZ4EyhBAjGbRnFXxx/6H519Gnxp2/ViOmiehdQzrh7bfSp3fuovA+/ORVzvz8TjiRwbfoPvCEPyw/ViMrPwBPvb1TrZEXb00vI+Ew/C/QBijHAdJ6ML2QtE6YY2nu6Rx+qSuG/HIl7Lv20x+fINedJUf/Ji869Ixntqd6a+8o3OarmU/98IuF5VPzIX3rNzAORqpdEEv7Nd2pdi7wV00MPvBdPBq2+F4qY4KXKyBT0clwTZ942DIFKR8Bnz1Tpy7b1lToC7Kbp8PdfH5zn/of3at0GZcunPQJ5nbusCbvMZnkIMhm1Ue16T8rN/buTT5ME5kSC3DfKPfj7b+LuVEf8sdcCgad/lE7C708n3O1p1Qt+a1nR4tz7eyIeSVgUkPwHgWDnix5FKQ/uHfknmTCFxF2WJwGSQK5FmiSwHo5dVyjpP30Tcx9eiD3GFC/JF1fi7pfHYuq/INEp2EaWgdfnwKaI++vvzPMlCZwiKvaAqNWCANwhoIQlICs2DIFKR8A8CpV+h8t4fRjBVu3sD26OKjkx6j69FFN8n9h+SnUwH0vDkOF69mLibEGnjUG52S9IjCeTWBMmg9JN2lZjSPDEb1Yvg1/ImH10VjoDGMEQdmV1q3Mf7K117+6OulblPWTa9aanxXxx69cpVIOoUEkOzZFcgAV6RDIsBmOLWBONrDKFL3Dx4xH5zyqFhUS8uS3qvr4Wd79RdQNJr2G8RY3Kc3hFHomfqAwXka4M03gMHZgu5DsQ9OsoqCErXvklsGf4rjw+of1hCJQ5AkH/KZT50mz6lYAAP9oIDa1f5tz39cu9dVXEnZC7+bSMcY+MR7Yyylwx4HqeNHSGH37swX3tcMcpA/SxybyM6BAdFH/6hRIqVWJ5XnK/7JQzGcHp81um2Pj7z6XaWRN6YT5Bg+MkCuLWL+VBEiVehUwGmgoUmnQF4QMZ4H7/o7wOlMJekwfCE1PKoq4JJpSP0s76h3ujbp0SW/3COGn8wHSeKkq8qgi9mOlW8xqk70FAXkb6fPZsCJQ7AkYUyv0OVsn8+fEmaa+lLurWyvjuWZuqirgog0y3QjL7p7qsZwoLBIBGUR4RmGak+SfGLluLZ4zIuMgC3Smv98U974MfsUjPEwPaqiqNDx6RBKrArpMFAABAAElEQVQ1shk0Pst5WXeMgHkJD4wq88w0S9ZJomI2UsQOvlMaG4PjwlT4InWd6XxTYWgUSTi4RR03VXq7VWWz3L9sg3MmNGG/iof057lnYe5R+v32bAiUKwJGFMr1zlXhvDHUuISpx1/ZHHGblBG/S3oH1xUK6JQ2AQI4d9T34J4SB3FXz4Q4YNAQ03kowxuR5eKaUwclkGg01C9IOOSk/QYGHMPGI9vA4CxucO5dGbO3d0TcGpGEsGWM3q5WBpP8iFIeEJn7emQiTPMVktikEE1LY3bPC+slsTXMICfhxU1R4aqqidUKfSjvIMzge0NIAe8RpCHT8EgCpFGeBxuGQKUjYESh0u9wBa6Pn2avhHGJNAQWo3mQVKOniLspSd4OuafRSqC3wZDKKjHmxO754WfTnd6B+8HC8Qcy7qP6HBn2GISpA0lnOjqeVcnit9f86+ynfibob3bRjcrDeG17xH2gnIS1rZlL9vzOEdeEkaOeLlXs9/6ivC5MIUwp8obpfRpUcN6kxFX6dnyu8lEUNzMRilzmTnLn/g0R9/5uNXp61Gk07OdTZPFR/oHPh1gBZM7LY3h6OT6fsJcNgfJFwIhC+d47m7kQwJW8RIaWxw4ZBCoMIAk9KmGkux9/D4gwDCsJkQTEEdW935AHwi8ejhnDqI0qZo4A1HR3OEYNj8YP1eqaxEa8GYQqZjI4d7OEf55XJv6fPZ8iCWE9CenrsesdE6nJ5rkg3l43TYcgfY7ZPuOiJ1ckCNOH7ND1wAhPH+CwRFj/QGEXVCRPKgdlRPdsJmTBM+Ba6x7pWfxQZap7UNhUjksuI65JTirBku+Sv0shFXZYGCKUkcu17b2GQCkiYEShFO+KzWlGCGBwSESsl6dh3ZLUKTBeGFPCCXQNvKTs+v/tw5iIQGZD5HkUZCBui2CsVfWB065x+sDwPL8+6nko/v0XMS9u7uU1TH9jwL+ZK1oN7Hr/zcGoa1OS3XTvRcDHHx9iTUMyrkGDayHctHtdcLZ/0DmCjpGPcaYj4Qlc+YV7wIe5+hEatAtopf2Tl2tdMhHzElbJOwle2dOzgg6Q1LlJuQg/eSXqdok44nnKdeD5gKjcC5AQ56yQOjQ/bBgClY6AEYVKv8NVvj6SzRDPgUDQmjkht/fiRXH1kchstCAKJMpd6k14IYb5PjFolBdfU9kmhu8/fh1zN9XyOkyZHrcD0+LV9G+scX/9qrpmKudhJgMjSk4G4ZaggSfh4OaI+9t35j3jIQn6XNhjwyIA/8uvHrrTatDlVwVA2eh1hYb231dHTnkPMg2I0jZVtfzlqyILLuaOKLSTS1ULQlnr5O35H9+b5zZLJTNX70x6TmPyjrQr5yUonAOxIbzRQqll+oP2bAhUKAIz+4WqUDBsWZWNAKShRVnwSxuDs9Ux+EhHk6sQNDBsryuj/i+0C96wXFUKId3QKP69pHK9vzpY65XrBV0j6NgDucd71WfhlkovgwZ9DeiGmC+D1igCtloCUfVZQhv04fBCCgGTZY5blNj4Y+kdvCxyM1WJMeBjXggKT8K/e6fWbRHZmClJAEnCTpcCGkIxD+a1RJii82HDEKh0BIwoVPodtvU9RgDDjuLeJrm4M2n8p99IXf815R4M+ggApd/HMzkSB5VZ/ycv1Go3nJ0sUFr5miobfnwgRRIIC8x0kHDZpzyMQYVJ/Aanp2MjvQtYfz4GPyIb5BWhmVLQQPr69iheAv/58nl269vV2+EHygN5RUme2TQiOL5LTbz+q1dqVTYruevgaQRN0fMi9ArPW0P6EgSMRVrrOoVz7Ac0ACQ7VDEIWOihYm6lLSQMAngVyLCfV4shyGywCD9MKD5+XqI+S+VabtKOOWigAfCyEhLjiahc+6nmRJkS+wgBfEeG7/t7olnJStD1OMYce6QfcUMtlYPc8zVab6vWsFKPfI42dbBsUR+FW7peprVzbZp7XZFY0tblLpX/ETAhQju75BmAtCX1OHxVHh6FL6YPdva71tS476sfxguqRAlUU5z+4Qz/Rvip/XbCy2HJcNh7CcLVoNLLdcqFsWEIVAMCRhSq4S7bGh8jwA5+g37gm2TUcIP7GTWS8r5U3wY6QpK8CMHwGxgOpJZflmeB8y+Yp+ZQ6j9ArkN6kJPwyraI+55KILfLAE7vLpl+X9jncWlFQGTaRRQyVRKkz8Num3bKtKrO51ipbpu44ufPU8XAlHVPvSYhnRPqDLljdcItb3q6wdPU96X/poMopY0MwjrHlLPgtR1/9Aakq3fKk/CeMH1+g7pLZvFoPPqY7xP5JjeVm3BSiZlUafgNvEiEHBD+smEIVAMCRhSq4S7bGh8j4FUANNd4OQV35Qr3ugM+PvrkD3wNyDBfVFLjEhlZSiWDBmRhmXIBIAsk653rqnHd2vHfk8GBFFBSybHNiqOTWDnbAUG48EgaOuhcy7XWtdrtz9aIBl2DYxAlPDWX1dZ7UiQm08AL0qF5k/+BB4JwRdAApUYZ/+dU4tigkNH6JQnPkNP6mfCE14JbLah36ziGe7ao9inUBKY3lJgaRL4WqW/EWkS/FM6xYQhUAwJGFKrhLtsaHyOAQW/QTvWA6uxJrhtX9YPfoDzvW7m816t0kc8E5TVwDs69VGShSS2yScjrU5LhpFSeFipojlGBbGQ7h99cpr5OqedJdae8LjnjoMx8L8yiJEvmH+QRmXrumf4NGdqhHI0zHTVeh0w/T819VRSc0o6dZlmrJJaVzbOCKQb73fIctMk43xqMuBGtnw6Py6RmSZImeSezHYQ4rijkcLLDnzxyDe4xTaW2y9PEvGwYAtWAgBGFarjLtsanEMBoPiei8Mn5VEdHv9p+PnRGO8xNKxKqllBmv4w9Holsg3bKuPt5zPWgxv+sPB2IEtGNMmg0KryyXYmba5V0V4hBmeeG5QmVlvrLLHteBRGcb6/H3Tp5FXYoDBOGxIB7s3JFeMz1AMUuhRyOtSeUxBrcsppwxzqtc5s8Q2G+C3M9VzufIVAMBIJ9f8WYkV3TECgAAjRd2q4kuOYs5W30FfjiUlxGJO6GpBdQ7NEpLYJfnYh7SYFBug3sfEm22yiDli0Zc67WhMck5SkIrrBg3sevJ9xvzsZV2plqyT1Xc8j1PNxREhg/VT7KUc3JL78ifV4SQzfJS7NCIR0bhkC1IGBEoVrutK3zKQTmKRxApQK72mw7Q8SUPjof9xLxZirX/NTFZ/APduLkO/z8WMydVYzfL7cifeo6eh0ofr9GSYaQhkIMPAPbVqaktLOVNI4qrHNCO/gPz8U9CepCzC/TNQjdfHkl7r7Sg1LToEHYaIvWhyz0TBQfg85txwyBUkbAiEIp3x2bW94QwHbuWRN1z7VJNEftnYMGRhoBnk9FFi72ZlFhCjrRLI5NyqD97mzMfaOd72iI7ok7ZcxInlyR52qH6UsiPENYh+TNbKNvMOm+uJhwX16NeWWQ2d4/18e5r2dVnfL7U3F3U7oZ/DtorBCpfEGS25vlUci+uqAz2TFDoLwQsByF8rpfNts5RIAyt+9IhrlLBusrGaxMdfrpy8XkLj+tJDx2zeQ07F+nUsgC0GyM14Bc419djrv/+E1M/RL81B/SM6XRlHPvqGviGhm2MPH/J5+c/V+18tTsVN4BIlQ37sQCMaWyAC2IXxyNS0mxxr2xNarS0um9JWc/p+lngA+Q63H0Rtz9TPLb7fIY+SVfpj9LeeZBeaCeU+fQhT6y3un32rMhUGkIGFGotDtq6wmNALvC9SrpY5dI2d51iQEF7Spx959QEiFNkEb09+sybDOVCg4zSTLxuwcT7jPlSHx4JuH6h9V9Ua8FDYjBQclD75KyYTGy8sF0iSo/9ijsca4n4uUiBM2XfIUOJTf+TCRoRDkg7+yIetUh+QqXcH9HVenyxdW4+/UxeRJ034MqR9JzR9TpgL4nK5sLF8pJX9ueDYFiI2BEodh3wK5fVAQoz3tOsr+35FUYGI+7wRH/6WBkqOGn1h4ZYnoCvCyPBIZxrgkDgkoXJKj0+eWEF8vv1c47qLafWeMhaVtW497fpZCDku0K7U1II0csn4S/N6VC2S4SECQxze4eT06n3vfPStIckHzym9vVKEvrmOud+331xuhUA60vhCk5CV0iCUEJoen1NOn+vrkz6raqJDJs74n0Z+3ZEKgEBIwoVMJdtDXMCoGVKmN8dUvU9Uup8VNl4gdJImPYJqUF4AkLyX99UV4IYvK0NOY8szUkYyIIlyXydKZLyosiJNfkFh+SEFCQp4PFEwZZqlyLH70g5UcZtGz6BLMCLMSHmyWUhFpin0St/uk43TpTstN+HyWcA1n4SO0nu0SK9sjFj5sf7YTZClSRBIpn5qzwPCllyEu6ZyQuZsMU70idFDV/sDfiXpI2RotKMy03we8O2uuVjIARhUq+u7a2UAiwE9+gEMRb25Pursr1Tt7I3IJ66skwbO1KgOvqj7urqr2/IqO2TQaaRkFLtZvHqLCzzjbwEkw+TLp+7aR7ZVSJl2PQIAsDaiGdLdTA+XHTU7b31s6Ie3Nb1DOs+XLdZ1tP+jjeDLwa76uvxaBCCp+dU+mhCFaQcebYHRnwfnAQabjSl/DyHRCMWtGMmJUIkHIYwoz7CmlQ9ojoVadIwgUlo0K88CJky0fg/OBHG+nX1cCLNawqoocmzHrtPYZAPhEwopBPdO3cZYNAnQwQfR0+2FerWHnM6x4ZFxnINnBdX5MR6rwTd8dbEiIc0hIQ6VinnfAyaTRg2DCalGOSEAcxiEmtkXOTUDemnTatoomVXxU5uCnXuNeDIsS1mRulnYuVvPj8xhrtfCUfnQdBomwY+B0nHLNa/RB+/HytvCIxqTam8juCyALnghx1CweM/JnOpFvfmnBbpAexYXnS89osFKaQO84fFa5s8+PCFPLGg5yD2yJe5J1cE9mgcRbkI0wuAteHJNAye7c8RcydElOuZ8MQqFYEjChU6523dT+DAH0FDigJ796DWvfL4zEvyQ7dhGyGjXAERqhD3oAu7YS/VVOolkbn1shIUoEACVmk/g4oNsqeyYOg7pTyIpDvgCehR7to/oY8cK6wAwKCJ+GASMIP99aqp4NeKLHheWukZPhnL0W9tdE/Y1Qhnmz5FiwDEkYJJV6GUx2Scq6PizRIJEs5A/Xa7ROSWIABl2HHg4C0NV6L4XGRhAElLcqjQP5Dtvs3FTKIV4MULXcolPRjzXmTpKaLlesxdV72tyFQTASMKBQTfbt2SSHATnKx1AXfVeJaqwz8T7+MeQ2CiHGHNTYYQHIcbvXzyFKiMIvVY7yWSbPgDSUMfo+21fJilOogf+JAW9TVqazwFydiXnLm0Fg4ssCawB6DP6CqjwFPtjoXOhUeFUgCxG6fqhv+5ECtJ6zEazYMgWpHwIhCtX8DbP1PIYBdwLWNDkCjdq0//TruzkkJcUIlkWHJwlMnzMM/MF5LRRJ+sC/qtVjOR0+JuZ42c94lEajm+nmSlI65Ty8k3JDCAfkx+bnPnvtOdcMbykkg3ID8tQ1DwBBIIVC62xC7Q4ZAERHATGxfHXV/+06te3uP2hgrlFAKpoPd+TbV9P/b16PuA+UkLCuw8uJsb8kqEZx//VKt+6P9mrsSP/HiFHswhyVKVvzhvoj7ixejjj4gNgwBQ+AJAuZReIKF/WUIPIUAyXJrlcj2Exm2beog+Yn6EpxT2WKY2vunTjQH/8CYkWD33nNR97ZEiTYqaXKR2hyXm2uc+S7Xzv2HIgokfn52Me6OqJV3tmZMcwBhxlPM0y/gC1JcfFdKluhpLFECquUkZITKXqxiBIwoVPHNt6VnR4BkvFVKSqyTUabc78i1hPtGjx5l5RciFMHeljI9mhHhQaCHwyqpA6LXUK77XgzxUhnkF5ULQC8KSBiE4YaSQQtFwpjDalWmvK1y0hc2RjzSgpJlKXg4sn8r7R2GQGERMKJQWLztamWIALvgViU5LlITKUoe2Qmf61adv8oZUXS8p/yFMFn8uSydnS6VE22qZNgukrBTpXrPiSSQ6V9uXoRM68YgY5i3am1LRBZWq5rhoioiLqpJE703aO9NqeNcDsjBojpKNtViXFUNOxXC2S2p62USygqjeTGXc7FzGQLlhIARhXK6WzbXoiKAJkKbSv0wLDtWIggUkd5CwhMH6lU2/ojK8ah4yLXMkUVhOGnNTHhhqQwnyXRUMmySfgCCQ0vlricUUmmDNZFnsbg+4rZqrbskXNUu7YPr8i50SqFxUKWOhCXwNOTqwQFTPEILhWmziN4aeYSQlt60Qh0gRfbwEC1QJQbvs2EIGAL+CBhR8MfGjhgCzyDAbp7cAAxO2xKV0kl34cbdJ2QBYZ8BSS4PS0jpvrQSMHB4GzyPw6MUfwwT56nVf33sZPEStCxKaSIsl9FEtniTCAmJf+WYh/AMaFlewE7Pl3DSahnuFfKi7JP3hJ4MiCV1S0MBGWh6QAxLf2FcWglpYSWIQ5o8gGmaGEA+6nWPmuU9aBXBQmsCZUWIF+2vKYGtRNKVBWY7bAjMGAEjCjOGzj5Y7QiwW6W/w8omxbnXy6MgcoBB65Zh65aGwrBElCTy6BBtQoUxCVuAIIglEFqo0wPhIIwZBowkv1bJFFOeWQnhhZl8PwgPNEn4arfCAjvUrhoRpX55FW4L0y6Rh7siYeha3HuEKYqMDBQauR9gCn4kJa6RV2aVSEKLcIVwGTmYyR2xzxgC+s0yEAwBQ2D2CCDRvEReAQzU1pWcT1br0UCS+MEjiWHKG3kvRstc3mmEMj9DGlDL5LFB3puDG5+8D0/CQ2H64FEeA6qXtcK1WgnWE2TsL0Ng7hEwojD3mNoZDYGnEIAcLMSCaadrY24QgGTNV37BbLt1zs1s7CyGQGUjoJ8wG4aAIWAIGAKGgCFgCGRGwIhCZlzsVUPAEDAEDAFDwBAQAkYU7GtgCBgChoAhYAgYAr4IGFHwhcYOGAKGgCFgCBgChoARBfsOGAKGgCFgCBgChoAvAkYUfKGxA4aAIWAIGAKGgCFgRMG+A4aAIWAIGAKGgCHgi4ARBV9o7IAhYAgYAoaAIWAImOCSfQfyhoA0cbKPlAJv9veVwTu83gOaZ1xKjF5/Bz2rGbX3t3cMBWeBAi7es/6I6A+0mFAh5DVTFnz2RoOdoPT6OqQxTuM59d1pTB/jq4Pgyes2DAFDYOYIGFGYOXb2yQAE+IGum5fS36eJjx8f8Hs94NQleQjDNakmUANqj3xrONUqmWZGQ+ooOaoHfR8m1FmSJlD0Mmisp6Oh8xoU0fa4bbE6RKpvRHNdjUcaSnKRRZgU8tcT6u1AF8nRe0k3pt4P4/eTbkIdJcf0TM8HsKezJ22rG9Qpsk5Nthr0aFyoPhqS1KbpFkTMhiFgCMwMASMKM8PNPpUFAYgCrX3nq+kRTXwyMQVIgtcHQcf5sfe22lnOW0qHmTINi871JNyl7oS7qaZF/WoKNarmUBMyYnEZsXTnSJ69NeozkZqkt9NF2hmc5olQNdbFvZ4Gq1ud26Y2yLvUEIlW0xi5atsRP4iJWIkI3FHr7h49+kYSboxunPTLwEsjLD08hWUaU5wGNY9wBS+1fXALRMoaRMqWi4DRPXJ5U8Q1izzMF96834YhYAiEQ8CIQjic7F05IhCVBWxSm1+MIT/KGNVnhl7kh/+eduLJMvnpxjDdFwG4LeN1qiPhTnQmXecddYpUC+RJkQO6REJ+MGShh3bKI/JERCNJ13HHuTM3k+7L5oTbtrrGa2MNcaA1MsavUge40imyc0BdIocS7o4IF+QALw2Nn9LhnFzWPym8Rh51n2y/ow6SCxNumbpJrm5OtZteJBIGUbNhCBgCwQgYUQjGx47OEAF2dQvVtMf7IebHOIPh5KWYdomT+jFP7wxneLmCfAwS0D2YcN+2J9y5zoTreORBmFRIAXIwm4Eh5EFL6rFJhTBoVz1Y4y7oOptWRtyBDRH34vqIF86pJA8D9x0ycGso6a7eTXjPhBgIKcQDQlZhsPa8OToHoa9xfceGRDwG5AHqFhnpFLablkTcmtaU18YIQxhE7T3VioARhWq983leN9yAeHytHr5DRgJjgJs5px247wnzcwBjdmcs6c4rxHBEJOG8jHfvoHa6Mmb5GBAozn1XbveBUadddtzd6Eu667eT7s2tMm4ycAsq4L9cQlK9yue4KSy7BhLurjCeTIeh8gAsRGxM37UUaUi6uyJja0fkXWipcSuVI1KvMJkNQ8AQeBaBCvi5eXZR9krxEWCHVqcfXloBEzvONNIGsVe7yfg6/gW9KK1BmOHq7YQ7foNH3F3tTSXSFWqWeCqGFZY4OykPhnbCd5Qg+eLGpNu1RsmPDeWZpAcpJMnzZn/CXb9DHoJyEGTACzUgfpCULn3vBibiyoGIuE2az4alEddKiMcSHwt1K+w6ZYKAEYUyuVHlNk2PKCgLHbLA33IcPDP4wb4vt/11GYyH8SDXwzMfLcgLxMzPdCfdH87G3ambCTekHWixPB8QBq7/u1Nxd70v4d7aGXUvb5R3oUXeBWX8l8sgJwXPwWWRr8u35EVQKACKWKxBJcp1hTwGx2u8qortSiJd3hDxvGHFmpNd1xAoNQSMKJTaHamQ+RBHxz3eohLAmwGOAtzBN+RSH9cPNuVspRArhgxQgndSyYr/5WjcXVbIgTyEUhiQqyu3km5wIub6x6Lu7e3ObVay48IyIAvkePSJJJzpkmdGZIfqkFIZg8oLOdsjb5E8DXvXOFVJGFkolXtj8yg+AkYUin8PKnIG6WTGjctqFNNPuvv6Ac402CmTyHZb8fglqnkvduxduZXSPEi6w9fi7u8OxVzfYCrJMNPc/V6DF9U8Kn2E+HiPR//G0ENEHj+0fv7m9bCD994Zcu73p+NynSfdD/fWuj1rI25+6TllHi8JQnhL9/jYTeVbKB/h3gyIF98psPTwTf/NPzTSuALj479zwJRzjCv8gacDUvjSeud5a8izsWEIVDsCRhSq/RuQx/XzI8tud16t9/Od8UoYyTGVFt64E3ebRCoWKKehWINZQhI+PBd3P/0y5ia0483FgDNvZj9P/1U1LJKYkojPEnlUWlSSh/APgkAPxEQopST7fkC760HlHwzr70kZqaSMKXMIO8Yk4vT1xYSbmIwpD6TWHWgrzeA6GCJC9eXVhOtR6SOehVwGmEIQ6uQ1WSQMeeB9QmOC0BbHSYIkVJTWsCDnYULVFBDRXDCF0N5QKIxKnNc2ObdxeaQkvFy54GXvNQTmGgEjCnONqJ3vMQLsANfKhdsgMaEhGUR+tDMNytcuKEnwZf0wN0t7oVhjTGV5J7Tj/cejuZEE1kmewIoWESOVMu7UY6sMzEopLuIhSXsUkPkhIp/e8WIwR0VMOpX1f6k34S4qxHFd1Q2jwoodeJhBdcS5roT7xbGYW9VS61Y2lhZZYB14PSAJkAXuddhBUuEiKS2StLlWuRirJZoE4ZovQQkwf/zQCdOYQgoeiox5CpnSuuiW9wJNhlERh7CYMsc+feaQKlzqpJS5okyTRsPibO8zBLIhYEQhG0J2fMYIYCCXSBVvhR59Ci8EuZvPy9hhNJMyrhiAQg+qGy4oue5Xx+OufzhleMLMAe8Bwkivbom651SJsETGbJFIw0Kp/+FReXYtTxaHUUOyeXmTcztXR9zEbufalVj31ZWEO638CMoj/chVem4YSOSMIQt/dyju/vt3tMtGefDJZdJvLfgz3qIRka+vFcbxPAnCmDVnG8x9sTwG7ObROmiVoSYHA4JQK/KQbW1gj/dhuUjTdnm0huSxaZeX4JpyYQb4joWYRIosJNyhK869tSMqz5CJM2W7b3a8chEwolC597boK+MHHUO4aXmNfqRrRBT8f6HvyjifkQzyUhnapdo1FnKwsz/XHXe/UcyfRMFsxpm5QQI2rqxxb2yLekYe4Z4WGZNcYtqskl0z7nP6EyxRuGKJMu7btHt+aWPCHW2Pu5OqtiAfIWhg+FB2PHYt4f65Je5+oJwFduLZDGrQOefiGAmh3FPID54P/7v/5GqEZzYtrXEbVaq4XN8F+mLkmnsBrtyHeSIWaCM06pyEgdY0pwjD9btSwhRhCBocZc4dEtg61VHjXpDgVYu+yzYMgWpEIPo/aVTjwm3NhUEAr8J9GeJLcqujB+D384xxJpGwTTtIZHaRfi7UuCFD9smFhPtG7vFxxf2zjXoZ4eeUD/DnB2vdy5ujXv19owzaXNTfY9wwaitlJFcqbEPool+4jWaZF2SB+DrCUCslILSMEr8ibgMgCdckbY3M9UiI6gbP+6R1712n0M3qqBdqmCtMPTImL0OTiBxS2JAovFthxJ0IV5DkWC8PBfPxdEGyfUHsuCFQYQgU8aekwpC05fgisHlZxK1SSKFHgkFBZYZXFKfHhb5aho5wRSH2b+kyyGMSVGJXHjTYoTcpOZEKg+/ti7pXN0XnhBxkuiaJelvlscDbEBV5+OxC3N1U/kLQwF3eIQGjj6T7sFJka4Nwz8XDEXTuXI5hXBGGOq9yQ/ITso35+hVaofnuUG7HNj3wKkAc5nrgmViu6zQukBS2kmbPydtxS3kM2bwdJLgSllosj0I6pDTXc7PzGQKljEAB922lDIPNLZ8IoKWwdZVc84o1Bw1286c64u6aauwfyu2b78Eu/LKSKHHv3xKJCYpdQxJaGpw7sCnifnCg1r2yMX8kIb1u4vHrWkVKnou674uYtCmEk81rgWfmZEfSHddOHvXD7GY6fbW5e6b9c4dyUrqVvJjt+nhM1ohEvtAW9QgYYYJ8kIT06jh3va6xU8JKL6h3xrqQglW9Ij6EIYaVc5FtTelr2bMhUCkIGFGolDtZwuvAnX5gHe5kJaNpV+c3+AG+IsN9hl4KGJk8/yKTaEfvhkvKS8hGTBqUXLdXcWo0C17Sc9A6/NY3k9chBngH/tVzte6Pn4+6ZTKq2cjCqJL3vr4ivQI1rWK3XMiB8mKvkjA7lAeQrQwSDNnh893YJsNNE7FC5FVAV/G0ULr7vEJIq+S9wqsRNFjXTa2JHh+5VG4EndOOGQLlgoARhXK5U2U8T378N62ocVvkVWjO4lVAG4C+Cqgi0rwnX4OM/HPKmzij6wxotxg05is+vUvhhu/uinox9GyGOuhcMzkGfugG/GhfrXtjh6oAZNiy5XBcFvk5qd4UhAAKOQjldMub0KvywqDBzr5VrnxCDYSmxCULPrgm4ZldqjgJU9VwRwSsUzoQQ1kSIQu+ELugIZBnBIwo5BlgO30KAWK7e+Ve3qiM9my7xnaVsX1yPi4Vv0To2vdcccaD8LWSF7vkTg4yadivDRKCem9PylVNOKBYgx34XymB8vmNirNn0Zugh8Zx4Ye7HFJUiMF1uhTC6ZB2AVoGQQPRJHb0e2SkC+WdyTQfyAK5EVs0F5IVgwa5Fz3yKHRqjfxtwxCoFgSK+LNXLRDbOkGAn+A9axQbltZAQ5YfZOLshAN+qwZIJJzlY3TLgN5QmANVyKCBwuK7u6Nun0gOGe/FHhizP1WOxA656rNVNXQr9EBranIVCjHITejSjrtfO++g4XmYRBifk5eGstBiD+7rXs1lm7xe2bxF6DCgCWFehWLfNbt+IREwolBItKv8WsSgqUd/frN+kANyFYDpgUr9LqgCApXEG8rkn8vBbvCwNAroXJhtt/3S5ojbJyNCxnvxTVpKGwF3+fNKqlylnI+gQYXJJWXr3xRhKMQgzHFXIYds+R4oHbYpSbNUMAUbKi3Qr0D9McjjFVdlSb9KUPuUQ2PDEKgWBIwoVMudLoF18gNMk6iXVVbYpuegH2QSGcdUf3+2K+n+4XjM0wfIZtTDLJHzkrl+Vo2qRrPstMmneEVzXS0xpWw7zTDXnqv3UOa3X3oDm1U+uUDlk34Dz0y7SFaHdCJIxsvn4N7QGZJ7FkRLSCJcLzElymWLkZfghwE5EytEEtDxCEpsZG30kehTKa2FH/zQtNcrDQEjCpV2R0t8PYvkat6lpMbvbIm4JpUbBg2M+oh2/d8ql+A/fxtz7SqbRGp5NgODhp4DsfSgc0Fi9m9UHF0liWgalNpACRLXPSQmaNB4qltx9cEspCjoHGGO0ZCJa0zEgmiC+jagkCiSgGJnqQ28CmtFFlZIrCpo3NMahyBFCrXYMASqAYHg/yKqAQFbY0ERwACjOHhQO/XnFYbIFmdn10ZVwsfq6PiLEzFPapkf6Jn+RJNjh+7/uHa+7Lj9BlUFCCotkVchn3X9ftfP9jrJofQxINEyyNvxELVG4def5+oH+inQ+CuoJBJMEdOid0Mxk0L9sAXHxZobJCxIqIrySLxSkDAbhkA1IGBEoRrucomtEdcuBu7tnaqC0I49KATB1PECDI469+l59TJQgiNiQrRpnkkogh/565IWfqAWxH4DYtCsJEY6QJaiN4F5sx9frp05gkGoN/oNMOofk7ZBno0a0tGURga54xfqviPP3SAJ5VIdeLxQiaSxlt8AUxpx3c4zpn7Xt9cNgUIjkEVmpNDTsetVCwKo41G//p5UB4cm1LFRO94gIwMuE/ICHLqYcGPKPB+ZlKaBXO8rm4JjylPx9H7g5SL3xIACvAkkWm4SSYAsBO3Wp567GH97Rk2u8hYZNlpk+w1I1W1pGxDKyUbK/M4R9DrnvSMyMpklLITqIo2VFpRA9Yjfesj/oBFVk8pPg3pUTCr8QOIm36lS9Dj5rc9eNwRmgoB5FGaCmn1m1giwXyPr/V2JGH13t0SEZOzCGGUy6k+0J93PD6vbo7wLFySahCHMRjKYMKGGEcXR2WEHvR9jsWdddrW+NAgYSlzuqCDiseDfuYz058mZ4DwYnzAD+WNaVJMYGDSGvTXPzAMTdN70MbBE5fJBFu2E5RKKojS2lA0rRIqmX6sUHgsa3OdREddCK18GzcmOGQL5QsA8CvlC1s6bFQEMBmThr79Tq86RMeUhpFQSsxlKDH6nsvl7+uPu0JWEp1b4/u5ar+MisW9i4ZlMJ3YMTQHIgl9+AnOqkwriLnQKQlg0qgkm5HK/Kzc03RsJA7QqYQ9BoWzEBz7APO4pDNKn3SnubNoiE8NPfz7TOqYCu0IelQ1LE+7bK1NfffpvPDFe/oCAjQasCdzTj1ySQFDQpJw1qbX4DQwwRKFOKpelPhZqjisaU94kP0LJvYMsTOjekS9iwxCoZASMKFTy3S2DtfETu0A/tH/z2jwXcQ/dx8pDuIObPMTc+RFHVOgf5V346nLCvb0r4l5Vs6a1KnHDIE13sye1db+nH3dUC313/ZrQPLnGSWLMZugx8me64u6USjiHJ1MliNjhZfrsvrVRt1uhFUiL37gvI9Oh+X8jTQdEilgP74do7JUwFYqB2XIk6EERpoLgoa5FWR95ApkG10ZXokOJnpAWSE/YgQojRCnIoYD64iLdk2yYhr1mPt8HmcL4L1D95oQPa+X7E9ex+16VhxGFfN4PO3fxEfD52Sj+xGwG1YUAu7g/faFWpCEm+WZJK6sBj89v9FPA8IPNbrZHBvefjsbdl5cSIgqpssbNyjNoe5RlT2Mqdv+4i/12iZyYn3yMWpM8HdOJxtQLEyK40ht3R9WXApU+zgm54fO3yLdQF0y8G9vlmci0iX+gzyMFfOh63DPMkA6PHOn1Pn3+9COXBxLHQYqQZOfjhWDO7HD9Bi5yunMuVd7F9IGhvyoFx1MSuLozpkRPnceXSE3/sP7NvL31ewvI8Aa9NF8gsI5IEKiZP1rwV7mH83TvqMipwVOSYQbpNUM6bRgClY6AEYVKv8Nlsj5+nNnFv6echYXKPP9UvR6uSWI5yPill8aPNu8bUXneuIz2bekGXOxSrX59wtudI5zUrOS0epGRrqGUuz/92enP2DGqMnD9B9m0B9pJnpa8NCRhqphRei4DCm9cVnUFAlN4TFjf1EFMv0NEwduJiyRMHRhdGhB1aR1rFssNrjwEvxGRAV4gvBaKLNBQy29AFAiRpKjMk3fxCjoLF3oTXltockB4ba4HhAbjG4TpXF9zpueD2NXqO8B8fYdA4j7hUXgWVd9P2QFDoCwRMKJQlretMifND/TKxRH3xnY1PVLS2+cX4lJQTHix+zArZhcMYeAxLkPcP+JcRzTp7QwXiCSwo8VgBnkqcP03yPDiDZhu3KfOAXLgeQ6mGfn0e7hOv1z47M5JOpx+skmFAUjC9NMd8IiPSAgVHisU2/cb2DKITZ0S8IKIAtcZU/gh0+iRB6NXD+acj8Hs8XhgfLnHpT4gM4SfPC0F5psBNl4i1JIvzEodI5tfdSFgRKG67nfJr9YjC6qAOLhJ5YnyAlANcfhq3A1JRyHD73Xgetjxebs+uY9TRjT7GbALGIowO9+s7nku53tJdqK+B1Pr0uEs7/AISGrOPhbtEUJcKxNBYg1ggwZCPoc3x3xeYI7PzXynk7vplwC7TJhOf5/92xAodwSMKJT7HazA+WOkSeh7fr2UEfXcUq+SSOUCtPeldr1ZDfQsMOGHnyoEnoN2vyTltdbXuNvyGmSaD8cpBXy8K502J8IR1OvX1GT+PNems2K93hM0uDbegiABKT5fqxPW+f3XziWCLxM0hVDHIGx4YTTdkh9gylwfpYn4zpd7BK42DIFKR8Dvp6PS123rKwMESHDcqsx/dAI2r0h4oYirIguIM+HyzWSgZ7ssjMOkPBD39FikuL+fZ4HkSOY2dl8CUCoPnDoXbEeTchzWq5Uy4Y5MpgR1QkIKzapaGNaOfqoB5f1Nen25xJSyVTRAaMCCUEbQ8PIuRDymD15pFhFr0jFaKOdjcNaHEAURmnLYgXvkS7kHXljIBxK+F5BBvqPPopoPFO2chkDxEDCiUDzs7cohEPCMrioQ3t4RdTtUAfCJkhyPt6sqQomA6CHkgzB4+QHKcUDG16/DIaJMtJ9GzKijX4mCJLXJqGA0yHFA2ZHySL9yQLwF61XGSTLkpVvSUJjixeC6NKParHbSJGAGjZgs7yQ6BlnyC7zqCOE4fWDw1oiQ3FF/gwmRMMoifWzj9I/m9G+SP/Nxr3KaRMg3s36+A5AbPyxAkjwWcl9sGAKVjoARhUq/wxWyPn6YV2kH/ucvRt3LGyPu8PWEOybCcFMtlNlNs/vL5ioOA0XaSAwr0RA9BPGBjAMDS7fBt7ZF3flbCS8ZcFLGHiNPd0QaNlE54Tc40qLQxcsbom6pqjPaVXlAVQLyxutbIxJRqnGLddzPo5E+7z2V59HgaqpHI31s6vN8zavRp8fCaiWQUu0QF4adg+rQqedcBtcmtBDkLcDo3lP2X9ybqD8uuVw3X+9Ne2kgN36D+0LiKyEkG4ZApSNgRKHS73CFrQ9X/pYVNa5NWglvbY+4CzLSh0UYzkv0qH84XDllECTYsXvaoWMwN2pH7+UYBHwAMvCicikwhAlZGIwHcWs8IdkGxobP71kXddtXs4tNqjogVXER5vOcH49Gr/IkggYVB1RF+CkIcq31SyNuiRJH+4YjXrMjz+0edNIpxxIC7arKK4cCNCogcahiIlOdzUsy5dRF+fOhCMKgPD1UrAQN7hWhBxuGQKUjYESh0u9wha6P8jVyF5bKuO2Xoabp0fmeuLso7YV2yTvT9vj+DDwNEAVEdBAfenVzOHleDL5HKLC4qf/lhLo+4n3ek4zO4fPs4ntEjjrkVQkaNLdaKu9IEPngGB6Senky1i3xd7lnug6Yjd6LuTHpRjAnv3FrWAJUwrZF1SylPCYUfrn1qImW3zzByytLNY+CH0T2egUhYEShgm5mNS0F40r8H7lddAqaVR2wRnH2VzerJbV2rggZ8WPfPSRJYj0Pa7c7KSNF7BltAlz2GLhMg930eRGFCb2HpMNs7n/OwXxmk9U2k8+TcHlbROFOFo9CsypHlikPIds6MH4ReR9m8qNAmKZnsEY5Dj6gCp50nw3em81TA5zFGFQ70IkTjYugsVBEdalw9ctBCfqsHTMEyg2BmfwmlNsabb4VjgAGkN0dYYnF2q2ulKcBxTwM/cS9iPfsdWaUEaD08Yh6K3x2NiHtgMzAEKPuG5SK40BCVQdSiixR9/JdyS33KLcBRUq/ATYYNNQdPTLi98ZZvr5cxp/+GhAyPwI2oZBOv0jcat0DqkZKcfC9gSSMaq5+g5kTPlkub1ZprsJv5va6ITAzBIwozAw3+1SJIoBhZLeKIcIb4PRjnh789JO0xy7wyFWIxNNljY/fpzeS/X/oatytbol4XSmfnCX9ruI+s/NtVz+M67cT3pr8ZoOXoKUhZdT83jMXr7eIKNAfg8ZSfvkNeHOoVlm7OKnEyuwejrmYVy7n4PsxpFJVJK2Dqkj4/qCRQU6HDUOgGhDQV96GIVAdCPCzTmLfeoUolsh48rffYFd8+FrC66aYSydFv/PN9euEVs6r10SnjFrQaMDD0qxERRnyfA4kt2mPTdWH32CmfaMJT/oab0+pDcJRvQpV9QwnfL0izJnKlBZ5aahKsWEIVAMCRhSq4S7bGh8jgMeBneA2tXGul6hR0OgdUFJjR8Ld9VFfDPpsPo8RGrmkKoPLPXKRT/hfibWuFSnaoMZU6Dbkc+DFIcSBSFXQGJcxprV230iwMQ46Rz6OQWLonMncRhQ+CRqEHVqVIOr18Ah6ox0zBCoEASMKFXIjbRnhEMBckoj2woaIJxONMfUbeBWOqPTyal8qsdHvfYV+/Y525cdvxNWmOhGoHUHexjaJPq1XKWnAMudk+pwfAoY2BEJEfgNMe7Vj71SCKQqYpTLwGnVrTngTIGJ+g9SKZq3R8hP8ELLXKxGBgP+kK3G5tiZDIFXFsFsehdVKesymrNchtUJyFa6LLPjF3guJKZUOn19OuNMdwUmMzIn22pukBbG8qTD/mbdKChrZafIPgkbKq5AK65C3UOxBSWe3dDMoMx3N4k1A94I1Wn5Cse+aXb+QCBTmF6SQK7JrGQIhEKAXw1bttknCCxoYsq8uJtynl+KqMJBFKeJgo3uyM+7+cCbuuuUiD9r54inZtlJhB3kTqEYoxCB239YifQspaJJE+f+3d17NdWXpeV4EiJxIAswEI5hjN8lmx+meac1YI40llexyuWxd6MYX/hf+A75RlcrlKpdd0o3tkmTl0UxP93Qgu5vdzZxzAIkMEDkDpN9nHWxg4xD7BADEORv81gz6HJ6d1n5XetcXUxXiP1xtmnQt2AOkOvEVH+PZqByuyB22UfYeqerCK+HauU3vWJ7CFuMVV9lubwgsOQJGFJYccntgPiCA5fpP9hW43YrymM6nnwBMZ7SL//zmZFr/+lf1bux6UTX8xVcT7okCShFuOVWpkRrgVEOB2yKisJSFAFibZBeBcWOqwvs8laj/4pPnPu5FqnNf5THSa1MHInHiSZKqVOidwHO9JApWDIHXCQEjCq9Ta9u7zkJgvbwBWEx3iCyktFXQVd3KWPnV7efuV9rN972iLIuzKhf6ByqPRxKL//lnExKPy/0wTQIoSNCP9hS4AxsLfLTF0K1e+ddiKfG3yKUUz5J0hdgWjXKX/EH2FoRMTrWbT3evbI/zrAGRhHOPJ90jES+iMaYrJM/aInUVNi5WDIHXCQGLo/A6tba96ywEMLoj/DMhn1t6J11/isBF7ICbtah9dn3SR3X8vWOFboNE7K+6EOvhRvNz9w/nJ921x0rYpAUt1YIK4dku4vO2CBBprNOpABa7/jx/jbwftiqxFRKQbsUliCoYNrKjv9dGquxJd0zZODcqQRXt8ioLbYm64ZIkCbR9v+pAXVKVKnnIoMZZW1WQklSmuocdMwTiikDhf1GJa+Wt3obAQhHA7/+FFrfufqzxU+v9SWw0IGO3drlLIlXA+r1a4mgSQS02ZeBZ7YqVcE5RJH99BS+H556gpHpfFulSuSf+/huF7uTOQl+3VJKSVPdayDEkGoVyl5wUsGDFwhxVWJ9JvgSeYIvLIa6ckIXFrjvP8t4NUjOgbrgvQ9UBEbFUth7Uu0h1OSB7lj0bCn2o8MWuF8+wYgjkMwImUcjn1rG6vXIEWNT2KCX02w3y7dfC/EhJpVItHBg3tsno7fMbUkEoJ8BbWpD3bsCzYIUPI71QwsCze7VoPpKK4YoWs4sSy99pUYKrNAGKeG6ZSMIJSRLe3VWoUNap1SmvEljqwvP3rCvwybnuKVlUKv0/u3m8OR52cZ5CKCvMM/EfassLPHFY6MLsyYjUHNyXyJCocRol7UiXHRKMkMiQ9nvv+kLv+rnQurxK3O3ehsCrQsCIwqtC1u4bGwRY1I5uLXBdCj88MJxIIpWq8n4xH5Cb4g1c6l74mAwH69HLy4tCgXjIOZGN+JyFkjTVpLcmkdUtpc6+KDXDbRGELnbkaQwXqStunrvl5fAHb6zUIps+PXaq91uMY7z/Whk2HhUuEKq2NJIFnultMbSQdw9OKtEVeCbcLasl9sf2AVKXTUGSMa7U3f3K6dEhG5PHIgdP5C3So/qkknIEz4AkEETqiN5hg+wT0hm9BtfZpyGw3BBY8UJlub2UvY8hkC0CLByPtdP8x8uT7lMZLA6l8acP379MOSUatEizoOzQLhoXujVaJKv0O6SBID3hnSgDDrIxoUWMUMb9kiB0iKS0S/VBJEhCM3cqJXOmMQZ8WGpFX/zjtwrdzw6uXHK7hDAWyd8xWMTGgkRcmS7Q3ANSsEYEDi8D3C1r9L1Kf7h6kseDRTyMKdcwk3lc9R9wJQskKo1WkQQkCeShSCXZ4B5B4f6old5QYK6jmwuXzMU0eL59GgL5hIARhXxqDatLThFgEXkgMfn/Oj3hLisiI4mBsqHR6OWrJVHYLMv4Bqkj9siocI2M3yr84qbcElr8WMiQHqAr79VChoHkbSV2wqiuQ9IEb6wIk8iwQBI2Skz/0f4C9x/eXumJSYaXLslpvApeGmdFFCBAvDMYZFogA0SYXC2SgHonIA38tnKKhGEgAtGbFPGizSAITSJdbSIIpByHrGTTjpAE3DtRKb0nNQ52E8mkJNP623mGwHJAwIjCcmhFe4dFQwDxN+ml//y34+7Wkxded57NIjNXRTAwrJLhIzYEiMIHJa1AYpGpxGCue/Ibu+7NdSvcxwcL3R/KgDFd7IKo+yzF76Rv/l4GmdcV2AjJwkIxhXSVyhDVL+J6gVG1GynEFxo9E0KAJGGfXEvf2VmQMsnVUuBmzzAE8gEBIwr50ApWh7xCgB0veQj+8utx99tr8vGXR0QWm+A534UFSP+fvs+CF0pJEg7JruIXIgjvsOuV1IL753NhZ+/tLxonXatsFhaKgX/f4KXVQAtuI4GH2uiwVEhHpG6IA6b53N5Wt+WDgBGF5dOW9iaLiACLDqmcCbBE7IRmGS1mYgC3iFWIvFWxSMF7iir5rw6v9EGVymULEayXkRflwQEwxbuhSRKby5Is4OWwUAnAYr0WEop6hWY+sqXQba+TJEHSnzhguljvb/cxBFIhYEQhFTp27LVGgB0vO99L8kD4WrkeMMrrU1Cmhe6E5wsqUoktMlp8t0EukA2F3nCyPGYLGmQBO4KWnufulmwz7ssmhERMucS0UhjuUPKsfXKT3SSygErDSMJ8e6ldtxwRMKKwHFvV3mnREGAB65Hl/AMF57mkcL/npWd/qO9j2hkvVSGgU5UyMx5U5MIPFJoZ/TnhpzHoi+uCRgwD3FGJ3oiLaYsMDwflHrpUhAHcCOxEdM1tsvMgkmStXCGxebBiCBgCsxEwojAbD/uXITAnAuyCcbO7JanCBUkY+GxV4KV0eRfmvFkGP7KQ4UUBQaiXV8MhkYQTCu7UsA6jyKUPzZxBlbM+xduCiBx0SGrzRB4fjVJFdMoeZESGj9l4RmTzYDwaioVrnWwR6qVi2CoPFbwpypcJptlgYecaApkiYEQhU6TsvNceAXa7GDmiY78qV7+bIgskFGrTIjcsv33CLi+0oF7A5XENC5liCDTIxXKvwgfvRYqg2AzLsSSMR+XSKOL1RO6iQYhswitjw7BQKQOogWmlyADBm8hwWa/EVUR/rFC6cciDFUPAEIhGwIhCNDZ2xBCIRADDxlYRhEtPlaxJpKG9OxF6mXwFQ0oyNCLikInxI8SAiH9lWsBYtAjSBEmAIGB9v1t682rFEHgdCvYLJMEiiiK2IZ3661EcBIInYQQ5KtdSME1HHEAL11FUM6UKzoSxJ3k5IAgbhW2dJAiVwhrsrRgChkB6BIwopMfIzjAEUiJABkRCLz/WbhjxObtigicNKXQwC5vWN//JzjlYxFjIsD1ADF6tRWyjwhVvrVXYYkkR0JeTgfF1DxmMO2XX4HNl9kQ9kSBiw8KawFhIb8ATcsGfoPSSAaQDeDCUSHpQI7UN7o4bFX65rrJARoopm9EOGgKGQAQCRhQigLGfDYFsEfCLlv4DOSCw0oCIQr92xCR56tMCh3qCxb9SAX1qkB6UyQbBhyVOZKCEPNgm92XUA1w9MdA/CKw0xJ+kN0HabWIeIDnA1iDwWoCIQRwM05cxtV8MgWwQMKKQDVp2riGQBQIscEEUIP996trphcsWsSzQnH1qGNvpI4bnNBT2xRBYTASMKCwmmnYvQ8AQMAQMAUNgmSGAas+KIWAIGAKGgCFgCBgCcyJgRGFOWOxHQ8AQMAQMAUPAEAABIwrWDwwBQ8AQMAQMAUMgEgEjCpHQ2AFDwBAwBAwBQ8AQMKJgfcAQMAQMAUPAEDAEIhEwohAJjR0wBAwBQ8AQMAQMASMK1gcMAUPAEDAEDAFDIBIBIwqR0NgBQ8AQMAQMAUPAEDCiYH3AEDAEDAFDwBAwBCIRMKIQCY0dMAQMAUPAEDAEDAEjCtYHDAFDwBAwBAwBQyASASMKkdDYAUPAEDAEDAFDwBAwomB9wBAwBAwBQ8AQMAQiETCiEAmNHTAEDAFDwBAwBAwBIwrWBwwBQ8AQMAQMAUMgEgEjCpHQ2AFDwBAwBAwBQ8AQMKJgfcAQMAQMAUPAEDAEIhEwohAJjR0wBAwBQ8AQMAQMASMK1gcMAUPAEDAEDAFDIBIBIwqR0NgBQ8AQMAQMAUPAEDCiYH3AEDAEDAFDwBAwBCIRMKIQCY0dMAQMAUPAEDAEDAEjCtYHDAFDwBAwBAwBQyASASMKkdDYAUPAEDAEDAFDwBAwomB9wBAwBAwBQ8AQMAQiETCiEAmNHTAEDAFDwBAwBAwBIwrWBwwBQ8AQMAQMAUMgEgEjCpHQ2AFDwBAwBAwBQ8AQMKJgfcAQMAQMAUPAEDAEIhEwohAJjR0wBAwBQ8AQMAQMASMK1gcMAUPAEDAEDAFDIBIBIwqR0NgBQ8AQMAQMAUPAEDCiYH3AEDAEDAFDwBAwBCIRMKIQCY0dMAQMAUPAEDAEDAEjCtYHDAFDwBAwBAwBQyASASMKkdDYAUPAEDAEDAFDwBAwomB9wBAwBAwBQ8AQMAQiETCiEAmNHTAEDAFDwBAwBAwBIwrWBwwBQ8AQMAQMAUMgEgEjCpHQ2AFDwBAwBAwBQ8AQMKJgfcAQMAQMAUPAEDAEIhEwohAJjR0wBAwBQ8AQMAQMASMK1gcMAUPAEDAEDAFDIBIBIwqR0NgBQ8AQMAQMAUPAEDCiYH3AEDAEDAFDwBAwBCIRMKIQCY0dMAQMAUPAEDAEDAEjCtYHDAFDwBAwBAwBQyASASMKkdDYAUPAEDAEDAFDwBAwomB9wBAwBAwBQ8AQMAQiEVgZeWQZHXj+4oV7Pjnpnj9/4QoKVuivwP+9yld8/vy5a25pdT09vW5S3ylVlRVu7do6fVa+ykfbvRcJgZGRUXfvwUPX3z+gO75whYWFrq52jdu2td5/X6TH2G0MgbQIvNAcNjQ07J40NbvR0dHp8zduWOdq16yx/jiNiH15FQgsO6LAgJqYmHBDwyOur6/PDQ4OudGxMT+4JiYm3cqVK11JSbGrIaEx0AAANKlJREFUrKhwlVq4+SstKVn0gcazrt+47a7cuOlGteBQdu7Y5t4++WasiAKEZ1hYjjA5CVvKioJCV1Fe6oqLi92KFSv8b5n8B0xGRkbUHtyLGzlXoMW3srxC7VKY1b0yed5CzxkYGHBfnfnWNTU3uxfCoaSk1B0+fNBt2rhh0fvLQuu6VNePj4/7/sBnuBSo/SrKylxRUVHetWO4nnH9Pjn53HU+e+a++OqM63rWHQxF9zs//sBVV1W9tv0xru0Zt3ovK6IwPj6hQfTMdXR2+d3806dNrrW9QxPbsBvVxDY5/twVFhW40qJit1o7w03r17nNmza6TZs2aKdY63f8SBsWowQShVu377oRLbSUwsKV7tCBfYtx+1n3gBzxvKl1PLEAawFfjHdhV3373gPXpJ3MxOSEf25JcYk7sG+321q/JatFoX9wwN29e981tbZ50lGgOpaWlrpjRw77nXphYeakYxYAr+gf4yKcraprY2Oze/7iuSstK3WbN2/0kqlX9Mi8vi39rL290925e8/19PfPqitke//ePRpPGzxZmHUwxv9IHlvwYsjxYoytbGB5of4HYb9z/6Frb+0Qz06Q9jeOHnaQCCuGwKtEYFkQBQYzZKCppc19/8N5d+3GLdfa1uHGJEmILI8a3UUN+OrqSomSt7ljRw+6wwf2uw0S5WWzS468/xId4N15z6bmFi3kiQmDBXj16lWupqbardSOfSGlf2DQXbh4yX3z3XlJRhKEp7qqUlKYYk+yspkwe7p73NnvL6iNLviJrmBFgVu1qsZt3LBB9a0RkVockraQ97VroxEYGxt3d+7dd//wy09ce0fnrBMhUf/mD3/hVqs9a2qKZh2L8z+QTj4VSR6XNIyyUn20Sjv4NWtWu8JF2lTEGR+r++uBQOyJAgsl4mwWn19/9oVrEVlgJxguKyTjDi/+XMP/sF3o6e13PVevaQK851UF//k//alXTYTPD98r377zLi1t7e6//tl/c329A5IqvHDFpcXuj37xc/fB+++41SILVgyBxUAAW402Seh6evteuh1Ss2apaDgGQV0OBZsmxPx/9uf/w0speafqmkr3I42rX/zuz7zacjm8p72DIZAOgdgTBXa8X57+xv3Tr37jhgaGvIg4/NLFUjOwA6iqLnd8h1T0Yrugcydk4BiU0ZExLbhtbkwqCmwY4lY8+ZkiQC8mRYP03YohsJgIdHU/86Q0SlL3uLFJC+ozqaQ2zyLmi1mHXNzLj60pUX9inOWiFvZMQyB3CMSaKDzr7nVnfzjnPv3sS5GEQS8hAEpE2ps2b3CHD+53e3fv8vYHK4tWelEh+rzxiTHpnju8GPX2nXvaCbV5HT8ShsVaYBGj79yxXR4PE1INJCQc9Vs2u5rqpdltmdYyd4NqOT6ZsYG0DjIdFCR1RcVFblwqCSR0z3q6RRQ6vXV+RUV5cNry+8wBB0fFh7fU8WNH/EZnird4+yoMga0YAq8SgdgSBazwHzx87E7LKv2ZdN9MZJSS0hJ37PAhd/L4Mbdz+1aJCqslSZhtiQ0Z2LBuvduh44cOHHDXb950V67fwgh/0QreFdg97Nm9c9r4DUmFuUYuGsR2oyVEYHBwUIbBna53Su1QKM+X6uoqb7wI2UbdNzgw7NqkBuvp7XXLmigsIe7BoyAKa+vWyMvhRzJenJw2XK6pqVpWxqPB+9pnfiEQS6LAQt+iGAXnL170uxws0ilFWpyPHjrgdfN7Gna4crlrRdkalJeXuTIZYGF8xQDcuH69e/T4ceT52TYbz0V6sFQShGzrZ+cbAtkg0CWVQqe8iUaGEq6+xaVFbofcfRt2bnf3Hz32RAHDv5bWdtfZ9cwbumZzfzs3NQLMJ7gjr1+3NvWJdtQQeAUIxJIo4OGANOH6jTuzDBc3S91wSnEK9uzaIT//9KJPBh/ueVvk8lZVVeHqpVstkSjViiFgCMxGoFmSgg55OrCbReVQUVru9kmtB1koKy4VgRjx6ge8ITB4hDQgVbNiCBgC8UcgdiMZaQKT0f2Hj9wzWSQHBfXC0UOHtcMRSchSP0rEvTWrV7tVNTVeohAlhQieFf6kPvxlUrhvNvcO3zPqOUR9JBhQcuH8RDTKl4/NPld1UrTKxVS7zL7/wv8117tng2XQPsEnNcrm+qg34H7YvHjj2KEh2aJIV6/fitSfcBekP6Fumm+bRz13qX/H6LepudWr+LBFwAaosqrc7ZQ0gTgkeAL0Ka4CcTb6BvqlfujQvwc1pmoWvargi5qjv6/fDcswmcBPBPKiXrgCs+vGeLlCEkPGdSbYc0/+kguxSfhLLjyLcTfXseRzV0hlkM3YohYv5G2RiEiWfLeX/70Y/Tj5rmABISQSJO0KxsSo4V3o26h3CVSHxBaVSCYYz/WMZMyT34XjxHHpV+CzIW0OJ1QHfiuSvVmFAuYhreX7fJ6fXB/+TXuOjo65AanZeHf6GXMo9+c5BBOjf9G3ShQ3ZL7vPtez8/232BEFBihhTB83PvGTAwAzca2pXe2OHN4vven8jQVp+GwKA4j4BXheBDEMUl1fI6nFfEI4Mzjw5e7s6tZgmfHU4FnPX0x6whR2CaXDt0o1c/XaTXXqilRVUvyCardegacIL52PBYwJoIVIOyjEcdhAnfWZSWGSadcuF+PXoNQqzsTGjev9gA9+y+aTxYmdM/E6njY1ebH8gMgC/bNMk8gq2cZs0iJKiN0NUmtVirxm27+yqc+rPBe7hPb2djegfk5BUlBTs8qTBNoAsuClCMMTblwTbXtXl9qsY1GJAv27V+HQcVfs6u72uPNvHzVUcUTo86WaxMF5rcTz69bWyoh5teqwxi8qUQZ/XMcYxs5pbHS2WzVBjvr6exWsLaFu4d2pB+96+ep1tXMZP81dxA5qRKDAJhPpJjdhnPfJBbWpqcUHiJv7xrN/3aT+RVhxSNFCC89HWovnSntHog3b1b8H5foKKaP/lokkYGe1TqHo169fq/DRq/2cViLssyk8p1nGsd3dCVdbAuGtks3Ltm1b/XyOTUx7B2OrVW0tu5eeHjeoOkCiystK9NxaV79lk6TBm7zqmIV7vgVSxKaz61mPb1s2oj29PSILI25sYty/d4WIf1lpmSuXpLp2TY1brbDZq7XWVKnOzEeQiOVcYkcUfGAleSm0tM0EfKED79qx3a3XoCleQtUBrPOzL04rwNNtMdFEMKJUnWX/vr3u448+UFTDPalOe+kY/txnvvnenfn2rBvoH3rpOD94AydRJwo7u2/PnnPfKbhRuvLmG0fc7/7sx/IOaUh3ak6ODwjj785ddP/8q0+mn797V4P717/304xxhCT8+tMv3DkFjgrKOydPuN//+U894Qh+y/QTF9tWLZxffHnGXbh0XQZ+vS+55XIvdh/bpM4insXB/Xv9hB5HcXyzpAnYHaBOoJSVl3hdORMkBTuFW7fv+UUbotSpCb5ZE/xi9KlgZ9uiCJlXFUjt4qXLWkgVK0UEkp19VKmsqtCcsMPbLO3XeIOwzTWZs1NmbJ39/rzPy5J8PxZPyERQhrV4XLhwxV26dC34ac5P5qR9eu6/++NfuB3bt815TvKPPOtx41P3f//6b123FsZMyh//4e+7d0+9pQUsBWnJ4EbgTAyMO4qcev7iZXfj1u1EXJYIjJHeIIU9cGC31L0n3Y5t9V6SmykZZjH+x1/9xl26eNXXrrxC4dFlX/anf/LvFdhtXG19w7fJvfsPfBj+uV6horLcnTr+pnv3nbfcdj2/TGrkbAp44w7fLKJ4Tm16VfF0nqqfBSH3o+5FoC3evV7P3K9588jhA159HXX+cvg9dkQB5tcpF6wgSiCNUFhU6PbtadCOYv6scj6NiUiW3SriuSBMc6r7DBC7YWqyTXXeXMfY3fC8IIzyXOeEf8PA83kGoV0nn2NBHT3hhu+Zi+/sINjpMUEHZUykDJFgpgWihVpg1j2m1ASZ3iM4D1fXBw+fuF9+8ht35859v1ihuEGqFRTw5H/EG7irkLuNkgZ98M4p97Hi8rPDXIzdX/Cspfh8JOldj6QxgdEwUgQm5qBsVZKsKqki2PVBFDok+WqUlIX+upDIoCzQSBAuXr4qQv6VpGTt/v7Bc8E9EDtLOqx+nNiVg/2AVB+Xr1xzN0TiP/zgHfc7P/nQ70CDa8OfzzUGJielwpgKUR4+Ntf3TMZW4YtCEYyESmSue8z1G6OQ/tXfNyjyOTtE9lzn89voaELdFXU8k98ZHx2SAn32+Wn3nSKwIl0JkzD6NuoT6hf0bdq2XfNw5+ln7sqVm+7nv/uxe199nL4RtEnKZ+tmkJMAcyQ1SOkI6nXm2x/cl199LWmD6qFGTbTzVPv6WiTuTCycL3Rer9RQP/v4Q7dv7+6s7GIgm/c0Pv/qb/5eBK1JpGEmkm/Qt2beRYhM9a9EH5fERZg1PW2WVLLIiELKxs7BQcTHgYsWj6cTl8uwihgFcdytZQoh78mku1L5IpILE2owiQfH/ODOwCYCdsygsJIegecKZNXc0uw+PzOknBUPpifTUiXIqqrETa3QjWk31KecFmEiyw7l9LffqX8Wup9IogRZiEthMn/4uNH1aDKm4BZZU51QOwTvQJKs6mpCcLOQjwmDMU8W2ts7lUBrfXBa1p+om776+lv39TdnRUL6p/EOblQiETQJxUrKEHuvkNpj3A0MSb+sRHBBGZfoGD33hD6jCrvgwoKiOccWCxVkOijhBWRmEQmOznxyzwJhFYexRfyLX/36M/fDhUtS7/RNL8XUHVJLpE2kSBAKVAK4wQYLPPNOt1RAf/13/+xf/p23Tiose3VmZGEGLv+Ndjp/4bL77LefizAk4uIglSvX+FJN3PCocvYMj87qB7jFX71+062R9xphtemLmRQ2bKic/vJ//5VrlcQM4hMU5s5SvW9lRZWkFMV+3uV9UUX09g0obsjYdB3oH8lzb3Cf5fT58qqTx29Hp+iWfpKJOCgMSHYz6I5IIb2UBb3+zz7+yJ1449isjkYdJsRWv5U4kyRIiLcWUniv9987JTHfXolcZzo090TSgFj4b/7+H93wYMLyHDLx9qnj7qASUKW1UVhVJX2juVxl0j60KWLvFultKcQReOfUSe1kGiSKXOVWamFgZ4RO9aricly8ckWL1rA/l8Xzux8uensQ7Gjy1SbEVzb0H8KDd8lGZGJqt1Ws3VPdmlXSC9dOn4VdAKL9x42Nbqw3YS/Qq3Ha+PTpvIkCffqbsz94FVovocmnli+IyratWyTuPajPzVqUVrlivCtEisEe1SQE4+r1G+6hDJ77tDtPVTBS++C9t92hgwe81Cl8LotAX58Wwb/9B79AcIwF5PCBA+7Em0flMRUt7sdAuFrzA/Y/mRZytOzYvsX9yX/8t96oLnwdhK1DdgOff3VGKoGXSVP43Gy+I2n75tvv3ZVrt6ZUDVCuFa68osw17Nrp3lI8mo0bsOUp9rt7svJiH3bpyg13994DYZZYuMe0yH/y6ZdeJH9EKoRsVSETY5OuRQs2Kr0BERHsLo4eOeR2y7OGsQU2g2pb4nR8f+6Ce/CgcZqsEPDr7oMHbvudeq8Sy0Rih5rl9NffiSS0Tc/dzJtb6zdJBXLINci9vkbSEQL1Ma4hCmCF9KJRyQZ59ydPmlzhaxLsKlZEAVFRryxgA19uBgREAQvcshQxE7IZONmci85z+9atXprBpBIusON7Dx7q75EsoBZGFNi5YLzH5Jz0GK8/fSpmHJY0gMnaujq3p2Gnt7wP1yv5OxEkMxlY4esQd2KXgdolm2uZ/FvbWsO3itV3dg70wYJJdJSr3B/9wc8d+m+sr5FmqZn8ZMquBpdbJrvffP7FNIFDEnbh0lXflkym+V7o0/fVf/FgCAKasYPHWJA07UGhv5FJlGRsiMxZ1Mmh8ujxU3fqxJtZ7y7Z3V26clUqh8tenQHuweLF/d4+dcIvCBgJIqVJ7OxXeOwR92+XQdx+kbf7EiufPXdJu2EW9Lk3EdQ9Mbbq/PXBO/EJCceor2jljKFekRYTdq57tIBh1JeqcG8WmkwL74ERLMnpknepWPw/ePxEydl+0O0yU0ukey7t+5DkeLK36JaKJ3gmCeWOHzvsPpDKhrgN7OpZqCmI3THSRYJ79vtzfjOExIw2f6bMvd/LnqhWhn475TabTZI3dvioPHhMff1G99OffOQxxnPIS4r1O6pUguRtU1/7lWyOMNYOiAqG3qj4+rTjJ8FcqsJ79/f3ucsik4FkBCnCbgXH+1D2RIxp+jckIPHe6lv8T+8OYcMe7k2RGIzqO4XbKknTlnvJvBfnARJ0JmwBCMEclBVKTYw0oVTWuIkJIzjy6j95XlReCHY+LN5T42vBlWGwzKVaQe2AAWfycwo1QZXIuAdcFruwWN68fduLpLMRrdJ+iIYZdHEt1L2qusK9pXgdx9885ieUZEkWBLK+ZLMnsaQ9x6gUETgT8UMFJ3r46InbLRKXrfHVUmPGpPjgwUM3NDIjyvfeHNphJi8CpJeu0YTZpt08C/2ACD2eOnglZLu7JD08MVJaWjr8wkQfQ2p44s033E+li8aLJNotTv1eFvBIOchMWjtFrtlMRJXE2Hr5KKL2l9xbtWChAqTtXsXYgniXlb3swcCYw+MAScViFdr3wuUrrq2j3UtjuC9uvXv27PIGuCzIyXMOCwYeDmSPpSCKvyTyy7iARGAMeUiSTzyKaINMC9czlzG2fvzh+w4iTftBtqaLHAtoj3Jh/zuy93mqJGQdMmpnXGF/BFnAsDgdUcB2iHOfybsjKKivkMDula0bnhxzriVqG8Y2sXeIiFknzxrUXEXKIbTcS6yIAoySARPWJ/nFWh23aHpnsdybLPfvx8CEufP3uhXI37q169x7b5/wblFR788Ey4L21onj7rY8AjDKAzcMsFhAiTUQNgiMuk+ufmfXxSKPVGB0Khoj775GUpL1a+teqlad3NXqamvcQ6kmJoYmNU4npCZ8JpuOVomwd7x0ftQPLBY3bt3x4t3AuIxsqFvrt8oo8T2/k51zEk+6IQtMteIpYOSMkVyUe2TSZa/NP1nU6ZMs7IHKkpffKJfHw1owSeyVTBLC4ECUUAEheSDzLv2agtTskaQUuxTPJhuiwLVIX3bvlhfBoYMvkwROUKHtkXAQL2fLpk3+eWwesSPpV7K/Ltmwbd/uT438DyoE3FDpF0EpVdCwDXp3iHCm/QupQ1iyFtxrOX6G6Fr+v96EOjciOILcBIWddPTuIjgrEUxjUOwPq1o6SdQfx2HaVgyBuRCokO6WCXLLli1zHZ71G7uPhp3bvKg2EEGzc2qXnhVDKhbFfC0sJBAavIzGp7wB0M/72ATacSUXIpuuFYGqLEvs3HlPXHnx+sjmPRmj6H+fyaedgjQB0S4uaBCrTCbxcN0SxnBlfnEJ//66f5+UdI84Btg9BOJ3sCYuwe6GXX7nnA4jVD+4fm7ZuMm3E+dDhhHJE4shm3bnWiQmb8j2hLD6syQJHAwV+gDSHIyCy0pmXCKH5LaMRCFdQZ6JWilcuGe2fSt8/XL/Hi+JgljjhP6wPg8KjUuOhygdJOclrHWHZFx21YuoAn1rcI/wJzqpEzLgSddZw9e8bt8x7lk7xb7R7WVaRkaGveElBkFxLQRYwWc8kx0qKgmihO7csVWRRB9Kn5pQmXVr19WuiRTJWHFYtJpHoGAgdv32HTciY7WgsENft67Oq/qC34JPdp+bJW7G4h23McqgVBb3pboYG3/Pi6szmYjxr+cP3TMFnNdKxHtgH65vL4vk/Un2n6wRoO9BVoc0JoP5EC+SdZKC0caZFNQk2Oc0KI4G5A4pFAXPtO6eZ96IuzTDQEjMI+XaoRMSPBO7J4hErYxqIeNBwY0au6l0hY0l6upwGZbLNVI+5iZsizLpq+Hrl/v3WBEFbVKggvxndrtocReljSywRzLa/frTz33krcmJ2WwyfCG6VwxmCCaTitWGr3ndvhdrQsHa/4SCNaUSTybjwsT0+ZdfywjphlowqQ2TT87DfzOZVVVUZmXJvkLXbN2iHCLSYw64hAU+ERzZ+SD6JPR4vhV2ggQTwwUUCV5QahXlcL2kBlELNkaBREgtfNjoRcG4ij5Rm/fI5W6dFvtMJt8nsk8YkgtcUIq1c1wnOwOMc60sHgL0vafNTe55aC5kc7RGRC+b2Bfs7Imj4dt2akhj09IrA1iMHDMlCvQp5lxE+Zn0E5BA/RH2OsCQFc+XdAUpE8bI2CUEsVXIVcK8RNjxfXsTxowQCkhLpvVJ99w4H48VUShQo9FwBVrMgwJvQIyWat2h/8J2cVNk8gr7RQf3CT6JK4D4zEo0AiuF0WoZ8+AjH2b00VckjrBLJGNnXAt9r0w7keTdSKr3gcNiJV9Ezgf9D4KEKxki9nFcDvMQD9QOPXILJDR1oMfFOHe9dpp1dWsiX3e1XBWxeCeuxKDCPQd640eKw4DKIh3xhqDgWjo2NhNcC9HyKuFXnoVhXGQF7cA0ArRrG4aAwjwo1fLiIB5INgsjC/y6dbNJIHPsoIxZR0dnCF/wjKjPFRpbjKtsQkGzkIcFcrxLmNhGPYs5Ho+VbfX13n6IMcn/kIr0y/X+obxLiCpKf68WeSoVyWfss4mkD0P+GdevU4kVUaCBV64smjXheALgWWRmO9SE8CFoZbqHFUMgMwRIikMAFuK+Z1qYdLHC5zomGRZPeh2kFRda2U7lXUFF0qjJsr93YJo0l8k2o047e9QPUQU1C5IDzoEoUEalwrglD5mjsjFIJ31CHE7cibCxcqmkV2uk7gnc86Kebb9nh8AL5YjxHkhT6gKuhoxlS+RZQJGysYnTjs1XAhsvYo6E2zFd7XDmKPYL/8wmMN01CTFyMJfrbL1LpvM5LqAf//hHPtZHYMxJfZ8+bVG0xVYf6Gu1wjSvra1z9cpKjDvoBnn7IHV5HXI7JGMfK6LARMtkszIkUaBnBAaO3lQh+Q31byYZso2dOnnC9SuKWCAxIFMYLjYE0QkMeua43H4yBDwCuKaxq8hGisKFSMDYkYd3ahAGyEK+FYg3Ll+3ZA0fnnbRB+M2lir5DosGqglUFC3ydqBMSnXxUJ4T6H6LFWI92a0yeH+ei586ng7hXS7BlIoy1HMH97LP9AhgED4unX5QkHZh65WN2iG4lnm5qHjldMRC+k0iJPPM/YNzIz+13id266GFP/LkhR9AbXFw/x738YcfKNfHWakCZ0gx9SdWT9uIUqtL6nLrzh2NX0VrlHQLexkMOA/s2+sNlQm6Fh7XC69Zft4hVkQBMRc7jKLCGb0uk8qgdiGjEmsn4gm83NHogIQhJSGTV1NMtQWuPKe/PqtoYDOWv/nZTFarfEGAvhRWfWVSL3+NrgtPKLj6TobcszK5z1Kcw26wR25m2AqENpue6BAT4vrNWynFrhgyhi3KEXET3RG/dfTChYXRPueoPMjWl0iznHhbsEsYKy/F278ez4CU0S5hQsabQ/TAO+uiKbdIkl76N/emQETy2XuMuqJ++OnHHyny5AYlnrvgDY6HFBWSjSRkATLPn5viO9gzEB+kqaVFwcVuuoMiC++/+5YnDuGxnTV+MbggVkSBCYOwmrhpue4EuuxCiD+O8RXuOnT2uQpMeXWynFcdvNRHdJzrCvvNEHgZASZCvGiyKSx8fsccWnmZkNml5FsZldoB6+82eR4wWQaF0Lpfnjkrd7TohZ5zx6QG7BMBDwr3ID4/ER7JpIkhWVRhskXyEjZMBms/WUddZL/PCwH6XvLiFvTT+dzQJ8BK6t/o8vO5MAaRkpFBl2iQLUo61qSQzkSPxfPGpwtQCPBAAk1f9nZukgQOa3NK7IhBBZD7+KMf+SiS+fyuC61brIgCJGBVzWpZxs6EToW59ovlDcqSvO5FtKHVQoGy6+OLAAOc3epCCxMp/S1VgqG5nsGzE/ramYV3PiqMue692L8NyLbg8RMFWQp5HvAMbAeCvBXZPpOd612lCz55/GhkKuIESSiQMdtsG6TJ58TYn4nEmu2z7fyXEfBYSx22MuRxwxghXsZ8pACQOQLhhQvq4XQ2KeHzc/mdvCv8bVY8iN0NfV5NhrS5X+qyLnkndYg4t7a1uSZSUGtcQBy8wa/U2Ndv3PL5dIjpQATSZPKVy/dazGfHiijw4rVranzUrsCCnJ0aJIFEMJs3boxN51zMRlzu99JGc1ZhuZ1ZcmcdmvMfiPkzsYae8+Lwj5ogiOo2ItuWTAv9k4RKo173nqh1Qh9c5IrzTPfOgk7KdLwUWDgWq4BBU1OLfOt7vI96lFSBjQDhccN68hFvQT/kJTLLdRJeLJyzuQ+76XK5NnpMp5p6RIsgEqVsCn2G+CiTSlYX9BmkQtjxRLnRZnP/pTyX8NDrFHU0kVMnsSkYURCnTqnT8Ma5L7ffO3fuesJANEjel5Tgt/UbqjryfyzXPho7olBTs0q6ztVehIldgmfCyuFOYJfDB/e/kvjrS9lZ7VmzEcCAMHnCQd3E4pNpYbczPDyTryDT65LPQ5pA9jzUXNmUfu3Sx7XgBSJMJtFyeU6Qxz6fCotEhzJF4jYXLptl9V1dVR2p1gufy3fapld2Di0S46I2YIwSx4RwzvWbo9UPLF7elTSUhGlEqYVJFkTdMvXJT67Pq/h35r3vVTx94fck/sAqGaiSATGIQzsw2C8dfOpsm8lPRlLW1dU7S2K3UlKhktLyrI1+k++dq3+z2PNHfywqksuo1N3bFCti7549PtnbV2e+VWbSx14NQQDAbvVtUrGTv2W5ltgRBS8ikptKbd1q16y0pBT0Y2SKY8eCi1Z4R7JcGy78Xnh1JDNZdtHPNYjjXgr1boijw4UES6TbZkFKfu/weXznHNLT9ig090ILu6ch2cMQ1tgpGl0mBbGsjw0QSmRWXlGq5DfV3gAsk3ss1TksEq0SsxLGPCjsDj949x2fM6EoqR2Cc5I/IXI3bt91v/yXT3wWSY6jPngkl8sD+/b59NzJ1/Bv2hIRLgbLQRkeVgIfpawmpDNxO5a0SJLFYqGKTT+WKIaIncMGm9MHY/SFvB2bNI9eU3rpwK0RzxQkSqgfomy9kl+RCJ4tPiPsDHUiaVNNdYWXDiWfH9d/exKrYEzvvCXPOWHULfKKHQMFD4+29g4/18T1/dLVO3ZEgd3lZsUjZ2fCjoXdCpMx+qMHMphC2oCf6+tS6MDoAgtWzBhxsqCNSmRGYp64F96vRDEIwmV4ZCwh7tR7piOFGB/1aXebSQz48DPm+k5fI0cIab1PvjiWEUmB1Dx4+MjHEwjuSf+s1aST6WQcXPeqP1kkUBEEyZh4Htn8SFe+S8TIL5oZVILFFPXMRqXbJt10UCAKPGPj83WR99qoxQu/fIztWJDHkXJoEn7c+ETW6evSYh48azE+oQdFMr4Mk1G8BahT3McWEgXyOhQVF+p9EoHA+uQi2N7e6VW5qeJlBNhCwgdEnOnffA9KRWWZj6URZJgMfl8On6gnNsmWASPIgCggaSSLZhiD5fCu4XfIb7PUcE2nvjNoNyml7c4d26dFW0zg6IzOKp1vh1jefAxy5nhUbH5KLKYzuzCIwrB20dlERsvXl4UEoW4KF9QI7H5o83SFpDdPnjQrGmJ2uteo+7LQPVB2POxi0hUWuk7ldCDS24R2XkFZU1vrF9GomALBeUv5CdmmrhgyhgtZG5HSZUoSuBYJFwvNFpF57DGC0ilJDB4VZKWMKhD9+vpNLkgLzdju6HrmLl255qNZRl2X6ncm8NA6lurUl44VyW6iqAQinpgq0cUPK1BW3A0sIdibN633KqWgbVGNYev1uPFpRnih0uuS2+v9B49nnU92VYJz5RsRfqlx5/lDokfP9GvWpGT16DxvnbeXxY4ogGSFrEvZ5RxWtLfwRHRXQWLQH7VIuvA6FRbTtRqYTNAUBjyBpDo1wca9EKZ1rZK0eLe5qZchK2GzfJlJk5uqQJjuydr+utIWB/YBqc7P5JgXtUrXfv7ilbSnYwh14dIVr/cPotSx4GzWTpv8D/lU2Blin9Cr0M1BYWztUnCZcrkQZ1tWKcT3drlDhnfjQ3Inw04hrNpIvi8T7rEjh5RPY+00xcAV7ZZSdZ9WYBwITTYFexJiOOBCPZ/CYrdaRDXI/jkhMbM3bpOUI86F98LKn3TSRSFbmcdPGt3la9czsunpkjrovPo3qjgIHQUX9p1K7ESEznwtbCTZRM1XAtDR1eme9Saym/KOEP5axQgJ9/V8fff51iuWRIEGqd+yyZ068aZbLRFuUAjWcvbcefdP0o2S0z7ZZSc4j086yzNNIM+0mLJLiHMhPvp2Gdv4MKpTL/L4cZO7rF0YqYLnOyDyARN2O+xot23dPE0WMJC7fuOO32V2K1PdXAW94fmLV92335+X6Hq2cd5c52f6GxNil3bev/nsC5GQh3KVnFu9Qy6HS5evuS+UBGt8NCFNYOHdvm2Lsk9uzTpUbqb1m+95TPZEUxyVTUBQIKDblSAtm9wWwbVlIhfrpUaorplRA0LWUD90y60sVcEobO/uBlejBEUUMO+R/dFvPvvS/fKTT70qKV2fhiTyrP/39//kTn/7neuSnUO2hXkGoorKo3RK/UVdmoTTDwrQQzrluJbg3U68eUyxaaqnJSaQ8CtKjvSFNlwY7s5VkM60aUx9Lwx+OHfRt09wHsSDNOwEM8rXQpKyM9985/77//wLX3/mEKR/6Qp97sbN25p3rrtnmgMojOkKpVZHwh1IZvyBZfaf2NkoBPiTtWx3ww73kaItfvrZ595NhUE8qI5+UQsk+dAbdu3wCyjsFpcsGhImOaBJHBew23fuu0aJ2aIm++BZyZ90GER0w3ILCkeRC5+HlXaPxNQYFQZlWME5MMBMtUNDB0ZynUD0Glyb6pN327Nnl+/8PVMhqvEIuaiFijqwMNVJp1YhX+FiJTgJF4xDSfRDsKp8LExo4HXo4EHXLMwnRxKkjoXtzNnvvM0AeQSIwV5aWubbEh/o2/fuuStXb2gyb/LGcSVFVfNaLMKYMClQHxahpqZW93/++u9k3HTc76CqZZxIJkjaHUnOzTt33fnzF/33QJpBGt/Dhw9K378t7yYV9K30zSC4EZIPoplu0M6eiKfZFsYafWurEu/09FyfvrxV0j525BMTO7xtzfSB0BfC65488Ya3Jj934bJXMSGRQTXy2W9PKxZ/s9u/TxboWzbqGVXeG4J2AXtUbvSNu7JKv3fvoXv65Kkw3z9vw1523oTrva4Fok96aAqSkStXbyp+y6DC+O7w4xXLeB9BUvWg8F8kn+tFMnifVAUpCdKnNgW1Qt89V2GOwjZmQh5e4dIpKdCDR49TPoOxQVtC/MKFNtq/Z7c7pFDGPyjjI+9HX+1o63Knz3wjg71ed0z9FWllmRJ9Me8N6N2b1E+uKzLhVWHCWAtKqTx5TmrztlW2D8nPCs7Jh0/C9Xc965W076rm/yZXJ5fIrVKTsflcu3aNbGSqROTLlJlSdjJqD/oUBox37j0Q+b/uHjx+NJ2lkjFdL3K0a8f2ZS1RmN1z8qEVM6wDEwMhYU8df8Pv2BBLEhGOjj6gFKf37z/y+tCbN267SsXjhlgw+ZF3fFjiSKxWMbTCMAmCQWERZceHfjUVO0Qa8YMWAXTVYxE+9SwmLa2aeEMGhUS7+1q7m8tawKLKJukNkZTgk5tpYdeDKPuIJsQfzl/ygXF4J95x8Pqwa3z0RLvysmmyFL7vHk0Ub598w1VszU+iQF0hTyePH3EXLl9yrc3tDpckBntbS4f7fvC8J301tLEmKozNetWu7RIN45KHux1GW3grzGdXGcaKyY9kMlWV5TLgavRpmAn2tV7plWu0g2JRwXjxWXefD9CC5CEgCfSto4cOuCOH9nuD2/B9c/0dyRu2Pe2dM+J0+v+27fV+sU81FlLVncl2p1QX167dnMahX+3Qqt0obVSrjJJzFcY2bfa2LMwxGrx6/abab8iTGOo5oAx/jU+fqm1rfVsk4jKsUNvjBjuqft+thaBHC5/Gt94tVVr5uZ4f/o26NOza6fZo04F9CnMLbQohv3b9tncvJNAOUj2ShgWaa4/ftnr34w/f96qm8D2Tv0+qL9Nf/+WT3/qFeC5pCQaiw7KLgZwE8xX3uXrjll+46XtR5b13Tiop10Hv5pd8To1URKfePuG9gm7euu1dfzFmbdY4Q7qAVKauVimZifmhOgxKytApux/6CsaPQf8mhPNbx4+5wwf2JeLcTBGm5Ofly7+ZnwnX3DjQ5CMyPtZ4XiUJVlWNkj5pfJcorwMqBYjCqNYMcGdziE0GawaFjUG9vHROidRyLX1luZbYEgUahImbHc8H773l4+9fvXrNNSswBtGzmLBxl2RAM2j5oyFZ5Okk4cGGqxCMG8tuGh2DqlSTIzuARvkfX795c5aoNrmTMODDzyHk50P9pepQ+I3vzYIk8Ezqukr1f//dUzKympCk5J5n+iymeD908NeVXLvEv8u16xse2T/3wTz5lUlwi4gQSb1Ofy0xsnZR7Hz5e0YbixAUqg0LtANAwhMEV6qVbcMbRw+5zYrlfkWLzUJLgfTnmxRTgF3YiCYLvG6alG2urbXDFRYlkj7RNya1OAU2CTyzRDvKfbrm3bdPeW+dfNttoQpgoRrQxElBcoIB355dO2UVn700wd9E/0EShCi6WGJ7xiRjgbZpFYF+psU8iihwPQsvz6c2WM+jaoL40ubYHTxSoqmnyvIH7omxjZs02ItEavcdjDsIGkST/jHfslqLwClIi0jobdlK9GhDwtgibXpH59yplPHaQBXIIpOuUG8I1M1bd/24nYsocI/k+YTfWlva1P/a+RpZGiR5RdoyV95PsIPMvf/OW35eunP3ridDvF9ibPV5GwYWTZ4/OU5k0olpgsDmq7Kq3EtdPvzgPZ9hMd/6dzIw1Jk5hT/fjiJGncpjgs2T/119ivdlnvbvLLLAhg/SQL9ifLAp2Va/RWT2uDskcsR1y7nMf/TkCSp0yk0yDvvJh++5dRKR3bh1S5bbTZ4koG+FFPAXiFSpNg2NcdxKZTyrlisW4sFdEiEeObjPqysy6eiIpRA1Tq6cW1Q4X3j8gqe6ZVvoqOx8eDtEhVgud/c885P/yNiI7+ReDZJkC1asd2DgRBUGC0SqRFi9mEyoLYo0+SYSI2XHoP299DwWjheTGnCF6IATIXtT3YnrYO/vnjqhyXncXZWxFX7Lo/JkYCCz23ouYrhiIhEkBXHghnVrFYDrgA8bjP7xpshTWO2ycmphj3pvfvf11XOLtNC80CRRWlLkaqUWOiLJAEZ3331/bjqs6+jwzOLEtWBKiFwI3J7dO91bJ44rYMsub2/B8XwqXVKVdGv3zcJWrIWDdqmurPYqKy9On2dlUVng7ogrGeoY2pwC0WNS3p3mvtim7N/T4KUatUr3i7Fys8TvLKok1IL0M9GHC2ObxQ8DPaQ/xGXYLfyROM230A8geswLdXV1ml80trSwQPyHp8eW3k39MCiQVgwgqU8mJRgbhXpG+D6ZXJvunASRiq4HqpHDknRBClcLp7sPHsj1r8uPL+bOUXl5hAtG0/QLUlIz1zQ07PIL5g5JUBjPGRXGtO4RjEmIIWMKHDItBZonmRe8REnQr5y6R7rrkS5vEeE/JAls75RkeVDkk7gzfq2QejMgmsG9wv0KSTbq3EMK8HfowH6/yQzOW66fsScKNAydq067R3bU29VZ7z986B5J3N6uCQmRJUaOPluaJnv8h8l7jlgU3d0mJhItsFyHTjWTUqBogeikGCxjYpqLWTZIjL0mZKCZzb2pzz5NrFs2b/RBfrAwx+KbmOUeA9V1ZipL3HmnjNWYkKMKgwpDSSQ0wbuWSQy5ThMmOGRTMIpDasNcwOLOhMOuE/0uYtt0BWwghGsVbAv7EowUB2UnMqFdJBEcITMlJWVanNb6iX3f3t3qF7Xa9XXqudtmDX7eO53umOP7pZ9mMqS+3J/r1q9LhHlF8nRVhl9kRxyS/cnolP6Y3QhBZ1B77ND5x44c1k5rXUKHne4ll/g4RAuSiaifnTeFdkX9hvRkITslroUkIAlq72j3O37uT/8hMmUmhf63S1b0EI79exskWbgtvNu8pJDdOn0yUC1AXgnOVV5eIWlFjSbzbRrbO/y1jPeFFEjPfvUncIKkQlhw9/RjSztSv9sUlsH4om9v1jjMxBCUehNb4+iRA15aEtxjIfUNX0ugKhbiVIW+jmps47p1bvudbe7uPY0vzR2DUvMQi8RjrCGKpKRU6cIrVd/10u0jrTioxRJCnM1sgLqGjY0nRqoY7cYOPR2pCb/DmtXVShW9128UwQybkM0ZBOVivjukTSHhmlsljcH2o11zRL/USmPqU8FcNzHx3L/TdL9SH0IKtnPHdnnd7fLPnY/9Tvgd4vJ9hSaKxe6XefHuGC2ySCLixDUK321EZuie6KS1Cl+Kr29lRUVWLDYvXu41rwSsv7dfdgjyyWenSltDFitl2IYXDBMjE182u5P5QopI1y8aXbIHkb0CEftKNKGsEQllcXtd8tXPF7/5XIcxcnt7u5eCDLMRkAoA8T3BkQjWhHHuekmUmMSXog/M5x3y+RqWBPo17rId7dpsyZgPlShSMmwVIJGo9cCZHX3cCwvgkOw/CBWOt9Kg3HFZM+hXbGqKRIzYzOACuVYbJMjr69avli1RiHvntfobAoaAIWAIGAL5gEB6eW8+1NLqYAgYAoaAIWAIGAI5QcCIQk5gt4caAoaAIWAIGALxQMCIQjzayWppCBgChoAhYAjkBAEjCjmB3R5qCBgChoAhYAjEAwEjCvFoJ6ulIWAIGAKGgCGQEwSMKOQEdnuoIWAIGAKGgCEQDwSMKMSjnayWhoAhYAgYAoZAThAwopAT2O2hhoAhYAgYAoZAPBAwohCPdrJaGgKGgCFgCBgCOUHAiEJOYLeHGgKGgCFgCBgC8UDAiEI82slqaQgYAoaAIWAI5AQBIwo5gd0eaggYAoaAIWAIxAMBIwrxaCerpSFgCBgChoAhkBMEjCjkBHZ7qCFgCBgChoAhEA8EjCjEo52sloaAIWAIGAKGQE4QMKKQE9jtoYaAIWAIGAKGQDwQMKIQj3ayWhoChoAhYAgYAjlBwIhCTmC3hxoChoAhYAgYAvFAwIhCPNrJamkIGAKGgCFgCOQEASMKOYHdHmoIGAKGgCFgCMQDASMK8Wgnq6UhYAgYAoaAIZATBIwo5AR2e6ghYAgYAoaAIRAPBIwoxKOdrJaGgCFgCBgChkBOEDCikBPY7aGGgCFgCBgChkA8EDCiEI92sloaAoaAIWAIGAI5QcCIQk5gt4caAoaAIWAIGALxQMCIQjzayWppCBgChoAhYAjkBAEjCjmB3R5qCBgChoAhYAjEAwEjCvFoJ6ulIWAIGAKGgCGQEwSMKOQEdnuoIWAIGAKGgCEQDwSMKMSjnayWhoAhYAgYAoZAThAwopAT2O2hhoAhYAgYAoZAPBAwohCPdrJaGgKGgCFgCBgCOUHAiEJOYLeHGgKGgCFgCBgC8UDAiEI82slqaQgYAoaAIWAI5AQBIwo5gd0eaggYAoaAIWAIxAMBIwrxaCerpSFgCBgChoAhkBMEjCjkBHZ7qCFgCBgChoAhEA8EjCjEo52sloaAIWAIGAKGQE4QMKKQE9jtoYaAIWAIGAKGQDwQMKIQj3ayWhoChoAhYAgYAjlBwIhCTmC3hxoChoAhYAgYAvFAwIhCPNrJamkIGAKGgCFgCOQEASMKOYHdHmoIGAKGgCFgCMQDASMK8Wgnq6UhYAgYAoaAIZATBIwo5AR2e6ghYAgYAoaAIRAPBIwoxKOdrJaGgCFgCBgChkBOEDCikBPY7aGGgCFgCBgChkA8EDCiEI92sloaAoaAIWAIGAI5QcCIQk5gt4caAoaAIWAIGALxQMCIQjzayWppCBgChoAhYAjkBAEjCjmB3R5qCBgChoAhYAjEAwEjCvFoJ6ulIWAIGAKGgCGQEwT+P61Mmi1sl1aAAAAAAElFTkSuQmCC;" vertex="1" parent="1">
          <mxGeometry x="83" y="486" width="75.53" height="63.95" as="geometry" />
        </mxCell>
        <mxCell id="4NxRTZ11jrj2CLpq35Q1-4" value="&lt;p style=&quot;margin: 0.0px 0.0px 0.0px 0.0px&quot;&gt;&lt;font style=&quot;font-variant-numeric: normal; font-variant-east-asian: normal; font-variant-alternates: normal; font-size-adjust: none; font-kerning: auto; font-optical-sizing: auto; font-feature-settings: normal; font-variation-settings: normal; font-variant-position: normal; font-stretch: normal; font-size: 10px; line-height: normal; font-family: &amp;quot;Helvetica Neue&amp;quot;; font-variant-ligatures: common-ligatures;&quot; color=&quot;#000000&quot; face=&quot;Helvetica Neue&quot;&gt;10.0.0.0/20&lt;/font&gt;&lt;/p&gt;" style="text;html=1;align=center;verticalAlign=middle;whiteSpace=wrap;rounded=0;" vertex="1" parent="1">
          <mxGeometry x="60" y="455" width="60" height="30" as="geometry" />
        </mxCell>
        <mxCell id="4NxRTZ11jrj2CLpq35Q1-2" value="TDK service" style="text;html=1;align=center;verticalAlign=middle;whiteSpace=wrap;rounded=0;" vertex="1" parent="1">
          <mxGeometry x="59.5" y="810" width="111" height="30" as="geometry" />
        </mxCell>
        <mxCell id="4NxRTZ11jrj2CLpq35Q1-3" value="Database" style="sketch=0;outlineConnect=0;fontColor=#232F3E;gradientColor=none;fillColor=#1554D1;strokeColor=none;dashed=0;verticalLabelPosition=bottom;verticalAlign=top;align=center;html=1;fontSize=12;fontStyle=0;aspect=fixed;pointerEvents=1;shape=mxgraph.aws4.rds_postgresql_instance;" vertex="1" parent="1">
          <mxGeometry x="77" y="699" width="70" height="70" as="geometry" />
        </mxCell>
        <mxCell id="4NxRTZ11jrj2CLpq35Q1-24" value="" style="group" vertex="1" connectable="0" parent="1">
          <mxGeometry x="400" y="570" width="330" height="160" as="geometry" />
        </mxCell>
        <mxCell id="4NxRTZ11jrj2CLpq35Q1-25" value="" style="rounded=1;whiteSpace=wrap;html=1;" vertex="1" parent="4NxRTZ11jrj2CLpq35Q1-24">
          <mxGeometry width="330" height="130" as="geometry" />
        </mxCell>
        <mxCell id="4NxRTZ11jrj2CLpq35Q1-26" value="CP Compliance" style="text;html=1;align=center;verticalAlign=middle;whiteSpace=wrap;rounded=0;" vertex="1" parent="4NxRTZ11jrj2CLpq35Q1-24">
          <mxGeometry x="66" y="130" width="210" height="30" as="geometry" />
        </mxCell>
        <mxCell id="4NxRTZ11jrj2CLpq35Q1-28" value="&lt;p style=&quot;margin: 0.0px 0.0px 0.0px 0.0px&quot;&gt;&lt;font style=&quot;font-variant-numeric: normal; font-variant-east-asian: normal; font-variant-alternates: normal; font-size-adjust: none; font-kerning: auto; font-optical-sizing: auto; font-feature-settings: normal; font-variation-settings: normal; font-variant-position: normal; font-stretch: normal; font-size: 10px; line-height: normal; font-family: &amp;quot;Helvetica Neue&amp;quot;; font-variant-ligatures: common-ligatures;&quot; color=&quot;#000000&quot; face=&quot;Helvetica Neue&quot;&gt;10.0.32.0/20&lt;/font&gt;&lt;/p&gt;" style="text;html=1;align=center;verticalAlign=middle;whiteSpace=wrap;rounded=0;" vertex="1" parent="4NxRTZ11jrj2CLpq35Q1-24">
          <mxGeometry x="260" width="60" height="30" as="geometry" />
        </mxCell>
        <mxCell id="4NxRTZ11jrj2CLpq35Q1-45" value="Compute" style="verticalLabelPosition=bottom;html=1;verticalAlign=top;align=center;strokeColor=none;fillColor=#00BEF2;shape=mxgraph.azure.virtual_machine;" vertex="1" parent="4NxRTZ11jrj2CLpq35Q1-24">
          <mxGeometry x="40" y="26" width="80" height="70" as="geometry" />
        </mxCell>
        <mxCell id="4NxRTZ11jrj2CLpq35Q1-49" value="" style="image;aspect=fixed;html=1;points=[];align=center;fontSize=12;image=img/lib/azure2/storage/Storage_Accounts_Classic.svg;" vertex="1" parent="4NxRTZ11jrj2CLpq35Q1-24">
          <mxGeometry x="180" y="35" width="65" height="52" as="geometry" />
        </mxCell>
        <mxCell id="4NxRTZ11jrj2CLpq35Q1-31" value="" style="group" vertex="1" connectable="0" parent="1">
          <mxGeometry x="399" y="751" width="330" height="160" as="geometry" />
        </mxCell>
        <mxCell id="4NxRTZ11jrj2CLpq35Q1-32" value="" style="rounded=1;whiteSpace=wrap;html=1;" vertex="1" parent="4NxRTZ11jrj2CLpq35Q1-31">
          <mxGeometry y="-1" width="330" height="130" as="geometry" />
        </mxCell>
        <mxCell id="4NxRTZ11jrj2CLpq35Q1-33" value="LFUK" style="text;html=1;align=center;verticalAlign=middle;whiteSpace=wrap;rounded=0;" vertex="1" parent="4NxRTZ11jrj2CLpq35Q1-31">
          <mxGeometry x="66" y="130" width="210" height="30" as="geometry" />
        </mxCell>
        <mxCell id="4NxRTZ11jrj2CLpq35Q1-35" value="&lt;p style=&quot;margin: 0.0px 0.0px 0.0px 0.0px&quot;&gt;&lt;font style=&quot;font-variant-numeric: normal; font-variant-east-asian: normal; font-variant-alternates: normal; font-size-adjust: none; font-kerning: auto; font-optical-sizing: auto; font-feature-settings: normal; font-variation-settings: normal; font-variant-position: normal; font-stretch: normal; font-size: 10px; line-height: normal; font-family: &amp;quot;Helvetica Neue&amp;quot;; font-variant-ligatures: common-ligatures;&quot; color=&quot;#000000&quot; face=&quot;Helvetica Neue&quot;&gt;10.0.48.0/20&lt;/font&gt;&lt;/p&gt;" style="text;html=1;align=center;verticalAlign=middle;whiteSpace=wrap;rounded=0;" vertex="1" parent="4NxRTZ11jrj2CLpq35Q1-31">
          <mxGeometry x="260" width="60" height="30" as="geometry" />
        </mxCell>
        <mxCell id="4NxRTZ11jrj2CLpq35Q1-47" value="Compute" style="verticalLabelPosition=bottom;html=1;verticalAlign=top;align=center;strokeColor=none;fillColor=#00BEF2;shape=mxgraph.azure.virtual_machine;" vertex="1" parent="4NxRTZ11jrj2CLpq35Q1-31">
          <mxGeometry x="45" y="23" width="80" height="70" as="geometry" />
        </mxCell>
        <mxCell id="4NxRTZ11jrj2CLpq35Q1-50" value="" style="image;aspect=fixed;html=1;points=[];align=center;fontSize=12;image=img/lib/azure2/storage/Storage_Accounts_Classic.svg;" vertex="1" parent="4NxRTZ11jrj2CLpq35Q1-31">
          <mxGeometry x="181" y="32" width="65" height="52" as="geometry" />
        </mxCell>
        <mxCell id="4NxRTZ11jrj2CLpq35Q1-38" value="" style="shape=filledEdge;curved=0;rounded=0;fixDash=1;endArrow=none;strokeWidth=10;fillColor=#ffffff;edgeStyle=orthogonalEdgeStyle;html=1;exitX=1;exitY=0.25;exitDx=0;exitDy=0;entryX=0;entryY=0.5;entryDx=0;entryDy=0;" edge="1" parent="1" source="4NxRTZ11jrj2CLpq35Q1-1" target="4NxRTZ11jrj2CLpq35Q1-9">
          <mxGeometry width="60" height="40" relative="1" as="geometry">
            <mxPoint x="410" y="710" as="sourcePoint" />
            <mxPoint x="470" y="670" as="targetPoint" />
          </mxGeometry>
        </mxCell>
        <mxCell id="4NxRTZ11jrj2CLpq35Q1-39" value="" style="shape=filledEdge;curved=0;rounded=0;fixDash=1;endArrow=none;strokeWidth=10;fillColor=#ffffff;edgeStyle=orthogonalEdgeStyle;html=1;exitX=1;exitY=0.5;exitDx=0;exitDy=0;entryX=0;entryY=0.5;entryDx=0;entryDy=0;" edge="1" parent="1" source="4NxRTZ11jrj2CLpq35Q1-1" target="4NxRTZ11jrj2CLpq35Q1-25">
          <mxGeometry width="60" height="40" relative="1" as="geometry">
            <mxPoint x="194" y="578" as="sourcePoint" />
            <mxPoint x="410" y="525" as="targetPoint" />
          </mxGeometry>
        </mxCell>
        <mxCell id="4NxRTZ11jrj2CLpq35Q1-40" value="" style="shape=filledEdge;curved=0;rounded=0;fixDash=1;endArrow=none;strokeWidth=10;fillColor=#ffffff;edgeStyle=orthogonalEdgeStyle;html=1;exitX=0.985;exitY=0.777;exitDx=0;exitDy=0;entryX=0;entryY=0.5;entryDx=0;entryDy=0;exitPerimeter=0;" edge="1" parent="1" source="4NxRTZ11jrj2CLpq35Q1-1" target="4NxRTZ11jrj2CLpq35Q1-32">
          <mxGeometry width="60" height="40" relative="1" as="geometry">
            <mxPoint x="194" y="645" as="sourcePoint" />
            <mxPoint x="410" y="715" as="targetPoint" />
          </mxGeometry>
        </mxCell>
        <mxCell id="4NxRTZ11jrj2CLpq35Q1-51" value="&lt;font color=&quot;#2986ff&quot; style=&quot;font-size: 19px;&quot;&gt;&lt;i&gt;vnet&amp;nbsp; peering&lt;/i&gt;&lt;/font&gt;" style="text;html=1;align=center;verticalAlign=middle;resizable=0;points=[];autosize=1;strokeColor=none;fillColor=none;rotation=-90;" vertex="1" parent="1">
          <mxGeometry x="177" y="617" width="130" height="40" as="geometry" />
        </mxCell>
      </root>
    </mxGraphModel>
  </diagram>
</mxfile>
